<?xml version="1.0" encoding="utf-8"?>
<!-- Generator: Adobe Illustrator 16.0.0, SVG Export Plug-In . SVG Version: 6.00 Build 0)  -->
<svg version="1.2" baseProfile="tiny" id="_x30_" xmlns="http://www.w3.org/2000/svg" xmlns:xlink="http://www.w3.org/1999/xlink"
	 x="0px" y="0px" width="595.807px" height="288.115px" viewBox="0 0 595.807 288.115" xml:space="preserve">
<g id="LWPOLYLINE_7_">
	<polygon stroke="#00EDED" stroke-width="2" stroke-linecap="round" stroke-linejoin="round" stroke-miterlimit="10" points="
		233.66,3.736 243.804,13.879 352.003,13.879 362.146,3.736 	"/>
</g>
<g id="LWPOLYLINE_6_">
	
		<polyline fill="#3C3C3C" stroke="#00EDED" stroke-width="2" stroke-linecap="round" stroke-linejoin="round" stroke-miterlimit="10" points="
		230.278,0.354 34.167,0.354 0.354,19.876 0.354,253.948 34.167,287.76 561.64,287.76 595.452,253.948 595.452,35.493 534.59,0.354 
		365.528,0.354 352.003,13.879 243.804,13.879 230.278,0.354 213.373,0.354 	"/>
</g>
<g id="LWPOLYLINE">
	<polygon stroke="#00EDED" stroke-width="2" stroke-linecap="round" stroke-linejoin="round" stroke-miterlimit="10" points="
		127.151,3.736 117.007,13.879 27.404,13.879 37.548,3.736 	"/>
</g>
<g id="LWPOLYLINE_1_">
	<polygon stroke="#00EDED" stroke-width="2" stroke-linecap="round" stroke-linejoin="round" stroke-miterlimit="10" points="
		223.516,3.736 213.373,13.879 123.77,13.879 133.913,3.736 	"/>
</g>
<g id="LWPOLYLINE_2_">
	<polygon stroke="#00EDED" stroke-width="2" stroke-linecap="round" stroke-linejoin="round" stroke-miterlimit="10" points="
		448.368,3.736 438.225,13.879 358.766,13.879 368.909,3.736 	"/>
</g>
<g id="LWPOLYLINE_3_">
	<polygon stroke="#00EDED" stroke-width="2" stroke-linecap="round" stroke-linejoin="round" stroke-miterlimit="10" points="
		534.59,3.736 524.446,13.879 444.987,13.879 455.131,3.736 	"/>
</g>
<g id="LWPOLYLINE_4_">
	<polygon fill="none" stroke="#FF0000" stroke-linecap="round" stroke-linejoin="round" stroke-miterlimit="10" points="
		347.717,4.931 356.17,4.931 349.612,11.489 341.159,11.489 	"/>
</g>
<g id="LINE_1_">
	
		<line fill="none" stroke="#FF0000" stroke-linecap="round" stroke-linejoin="round" stroke-miterlimit="10" x1="347.059" y1="6.604" x2="350.27" y2="9.815"/>
</g>
<g id="LINE_2_">
	
		<line fill="none" stroke="#FF0000" stroke-linecap="round" stroke-linejoin="round" stroke-miterlimit="10" x1="341.159" y1="11.489" x2="347.717" y2="4.931"/>
</g>
<g id="LINE_3_">
	
		<line fill="none" stroke="#FF0000" stroke-linecap="round" stroke-linejoin="round" stroke-miterlimit="10" x1="347.059" y1="9.815" x2="350.27" y2="6.604"/>
</g>
<g id="LWPOLYLINE_5_">
	
		<polyline fill="none" stroke="#00EDED" stroke-width="2" stroke-linecap="round" stroke-linejoin="round" stroke-miterlimit="10" points="
		280.997,287.76 308.047,260.709 308.047,160.963 287.76,140.676 287.76,40.929 314.81,13.879 	"/>
</g>
<g>
	<path fill="#00FF00" d="M57.115,12.116l0.074-0.571l2.852-3.406l0.59-0.715c0.119-0.146,0.234-0.278,0.346-0.4
		c-0.241,0.028-0.409,0.043-0.505,0.043l-0.187-0.004l-0.226,0.004L59.838,7.07h-1.915l0.136-0.649h3.927L61.92,7.015l-3.057,3.632
		c-0.375,0.448-0.614,0.729-0.715,0.844c0.114-0.016,0.188-0.023,0.222-0.023h3.104l-0.136,0.648H57.115z"/>
	<path fill="#00FF00" d="M62.126,12.116l1.193-5.695h1.763c0.321,0,0.56,0.014,0.715,0.039c0.254,0.044,0.468,0.121,0.643,0.231
		s0.31,0.26,0.406,0.45c0.096,0.19,0.144,0.401,0.144,0.632c0,0.313-0.086,0.589-0.258,0.827c-0.172,0.238-0.436,0.42-0.791,0.544
		c0.308,0.101,0.539,0.253,0.691,0.456c0.153,0.204,0.229,0.441,0.229,0.713c0,0.313-0.09,0.614-0.27,0.901
		c-0.18,0.287-0.418,0.51-0.715,0.666c-0.296,0.157-0.627,0.235-0.992,0.235H62.126z M63.023,11.471h1.297
		c0.344,0,0.576-0.012,0.695-0.035c0.241-0.042,0.437-0.112,0.587-0.212c0.15-0.1,0.268-0.231,0.354-0.395s0.128-0.334,0.128-0.513
		c0-0.267-0.083-0.469-0.25-0.607s-0.485-0.208-0.954-0.208h-1.445L63.023,11.471z M63.571,8.853h1.154
		c0.551,0,0.948-0.089,1.19-0.265s0.363-0.433,0.363-0.77c0-0.16-0.038-0.299-0.113-0.415c-0.075-0.117-0.175-0.201-0.301-0.255
		c-0.126-0.053-0.362-0.079-0.709-0.079h-1.212L63.571,8.853z"/>
	<path fill="#00FF00" d="M67.459,12.116l1.192-5.695h2.389c0.471,0,0.829,0.04,1.072,0.119c0.243,0.079,0.435,0.227,0.573,0.444
		c0.139,0.218,0.208,0.492,0.208,0.823c0,0.464-0.151,0.849-0.455,1.154c-0.303,0.306-0.792,0.504-1.468,0.595
		c0.207,0.152,0.364,0.303,0.47,0.45c0.238,0.334,0.43,0.68,0.575,1.037l0.435,1.072h-0.851l-0.408-1.061
		c-0.147-0.383-0.316-0.715-0.505-0.994c-0.129-0.194-0.262-0.322-0.396-0.383c-0.135-0.061-0.354-0.092-0.657-0.092h-0.886
		l-0.528,2.529H67.459z M68.877,8.969h1.053c0.487,0,0.804-0.007,0.952-0.02c0.288-0.028,0.523-0.093,0.707-0.194
		c0.184-0.101,0.326-0.237,0.427-0.408s0.151-0.354,0.151-0.551c0-0.166-0.038-0.311-0.112-0.434
		C71.98,7.24,71.881,7.157,71.76,7.112c-0.122-0.044-0.329-0.065-0.622-0.065h-1.857L68.877,8.969z"/>
	<path fill="#00FF00" d="M72.673,12.116l3.228-5.695h0.897l0.94,5.695H77l-0.276-1.64h-2.304l-0.913,1.64H72.673z M74.747,9.89
		h1.884L76.41,8.46c-0.085-0.567-0.138-1.04-0.159-1.418c-0.129,0.326-0.318,0.713-0.567,1.161L74.747,9.89z"/>
	<path fill="#00FF00" d="M78.527,12.116L79.72,6.42h0.738l0.959,2.137c0.292,0.653,0.524,1.202,0.695,1.647
		c0.098,0.259,0.212,0.608,0.342,1.049c0.07-0.479,0.158-0.974,0.264-1.484l0.699-3.349h0.742l-1.189,5.695h-0.753l-1.414-3.29
		c-0.251-0.58-0.447-1.092-0.587-1.535c-0.039,0.371-0.114,0.825-0.225,1.364l-0.723,3.461H78.527z"/>
	<path fill="#00FF00" d="M84.242,12.116l1.192-5.695h4.11L89.408,7.07H86.06l-0.373,1.771h3.263L88.814,9.49h-3.263l-0.412,1.981
		h3.585l-0.136,0.645H84.242z M88.756,5.002l-1.03,1.068h-0.777l-0.478-1.068h0.614l0.295,0.691l0.645-0.691H88.756z"/>
</g>
<g>
	<path fill="#00FF00" d="M159.195,8.861l0.754,0.105c-0.238,0.657-0.585,1.155-1.041,1.491c-0.456,0.337-0.967,0.505-1.535,0.505
		c-0.691,0-1.24-0.211-1.645-0.633s-0.608-1.026-0.608-1.814c0-1.025,0.308-1.873,0.924-2.544c0.549-0.599,1.231-0.897,2.047-0.897
		c0.604,0,1.092,0.162,1.466,0.485c0.375,0.324,0.591,0.759,0.651,1.306l-0.711,0.065c-0.075-0.411-0.23-0.719-0.464-0.922
		c-0.234-0.204-0.537-0.306-0.907-0.306c-0.697,0-1.26,0.31-1.69,0.929c-0.373,0.533-0.56,1.167-0.56,1.899
		c0,0.586,0.144,1.032,0.431,1.341c0.288,0.308,0.662,0.462,1.123,0.462c0.394,0,0.75-0.128,1.068-0.385
		C158.819,9.693,159.05,9.33,159.195,8.861z"/>
	<path fill="#00FF00" d="M159.984,10.866l3.228-5.695h0.897l0.94,5.695h-0.738l-0.276-1.64h-2.304l-0.913,1.64H159.984z
		 M162.059,8.64h1.884l-0.222-1.43c-0.085-0.567-0.138-1.04-0.159-1.418c-0.129,0.326-0.318,0.713-0.567,1.161L162.059,8.64z"/>
	<path fill="#00FF00" d="M165.823,10.866l1.192-5.695h2.389c0.471,0,0.829,0.04,1.072,0.119c0.243,0.079,0.435,0.227,0.573,0.444
		c0.139,0.218,0.208,0.492,0.208,0.823c0,0.464-0.151,0.849-0.455,1.154c-0.303,0.306-0.792,0.504-1.468,0.595
		c0.207,0.152,0.364,0.303,0.47,0.45c0.238,0.334,0.43,0.68,0.575,1.037l0.435,1.072h-0.851l-0.408-1.061
		c-0.147-0.383-0.316-0.715-0.505-0.994c-0.129-0.194-0.262-0.322-0.396-0.383c-0.135-0.061-0.354-0.092-0.657-0.092h-0.886
		l-0.528,2.529H165.823z M167.241,7.719h1.053c0.487,0,0.804-0.007,0.952-0.02c0.288-0.028,0.523-0.093,0.707-0.194
		c0.184-0.101,0.326-0.237,0.427-0.408s0.151-0.354,0.151-0.551c0-0.166-0.038-0.311-0.112-0.434
		c-0.075-0.123-0.174-0.206-0.295-0.251c-0.122-0.044-0.329-0.065-0.622-0.065h-1.857L167.241,7.719z"/>
	<path fill="#00FF00" d="M174.455,8.621l0.136-0.646h2.494l-0.485,2.319c-0.313,0.197-0.671,0.357-1.072,0.482
		c-0.401,0.124-0.796,0.186-1.185,0.186c-0.829,0-1.448-0.249-1.857-0.749c-0.344-0.423-0.517-0.965-0.517-1.628
		c0-0.684,0.151-1.306,0.453-1.866c0.302-0.562,0.683-0.976,1.142-1.243c0.459-0.269,0.971-0.402,1.533-0.402
		c0.404,0,0.767,0.073,1.087,0.22c0.321,0.146,0.567,0.342,0.738,0.586c0.171,0.245,0.294,0.564,0.369,0.958l-0.746,0.081
		c-0.08-0.391-0.247-0.69-0.499-0.898c-0.252-0.209-0.577-0.313-0.973-0.313c-0.412,0-0.796,0.112-1.154,0.336
		c-0.357,0.225-0.643,0.563-0.856,1.015c-0.214,0.451-0.321,0.965-0.321,1.54c0,0.572,0.141,1.005,0.424,1.298
		c0.282,0.292,0.672,0.438,1.169,0.438c0.495,0,1.027-0.163,1.597-0.489l0.256-1.224H174.455z"/>
	<path fill="#00FF00" d="M178.11,8.481c0-1.016,0.293-1.837,0.88-2.465c0.586-0.629,1.298-0.942,2.134-0.942
		c0.71,0,1.288,0.231,1.735,0.693s0.67,1.082,0.67,1.858c0,0.555-0.113,1.068-0.338,1.543c-0.168,0.354-0.381,0.661-0.637,0.918
		c-0.256,0.258-0.531,0.457-0.823,0.597c-0.389,0.187-0.8,0.279-1.235,0.279c-0.456,0-0.871-0.108-1.245-0.326
		c-0.375-0.217-0.658-0.521-0.851-0.911C178.207,9.335,178.11,8.92,178.11,8.481z M178.86,8.519c0,0.334,0.069,0.642,0.208,0.921
		c0.139,0.28,0.345,0.499,0.62,0.656c0.274,0.158,0.563,0.237,0.866,0.237c0.292,0,0.571-0.069,0.835-0.208s0.5-0.331,0.709-0.579
		c0.208-0.247,0.373-0.551,0.494-0.912c0.12-0.361,0.181-0.717,0.181-1.066c0-0.567-0.159-1.02-0.476-1.356
		c-0.317-0.336-0.709-0.505-1.175-0.505c-0.596,0-1.122,0.255-1.578,0.764C179.088,6.979,178.86,7.663,178.86,8.519z"/>
</g>
<g>
	<path fill="#00FF00" d="M377.584,12.116l1.192-5.695h0.758l-0.493,2.366h2.952l0.493-2.366h0.762l-1.188,5.695h-0.762l0.56-2.685
		h-2.948l-0.563,2.685H377.584z"/>
	<path fill="#00FF00" d="M382.837,12.116l3.228-5.695h0.897l0.939,5.695h-0.737l-0.276-1.64h-2.303l-0.914,1.64H382.837z
		 M384.911,9.89h1.884l-0.222-1.43c-0.086-0.567-0.139-1.04-0.159-1.418c-0.13,0.326-0.318,0.713-0.567,1.161L384.911,9.89z"/>
	<path fill="#00FF00" d="M388.69,12.116l1.192-5.695h0.738l0.96,2.137c0.292,0.653,0.523,1.202,0.695,1.647
		c0.098,0.259,0.212,0.608,0.342,1.049c0.069-0.479,0.157-0.974,0.264-1.484l0.699-3.349h0.742l-1.189,5.695h-0.753l-1.414-3.29
		c-0.251-0.58-0.446-1.092-0.587-1.535c-0.039,0.371-0.113,0.825-0.225,1.364l-0.723,3.461H388.69z"/>
	<path fill="#00FF00" d="M397.307,9.871l0.136-0.646h2.494l-0.485,2.319c-0.313,0.197-0.671,0.357-1.072,0.482
		c-0.401,0.124-0.796,0.186-1.185,0.186c-0.829,0-1.448-0.249-1.857-0.749c-0.344-0.423-0.517-0.965-0.517-1.628
		c0-0.684,0.151-1.306,0.452-1.866c0.303-0.562,0.684-0.976,1.143-1.243c0.459-0.269,0.971-0.402,1.533-0.402
		c0.403,0,0.766,0.073,1.087,0.22s0.567,0.342,0.738,0.586c0.171,0.245,0.294,0.564,0.369,0.958l-0.746,0.081
		c-0.08-0.391-0.247-0.69-0.499-0.898c-0.252-0.209-0.577-0.313-0.973-0.313c-0.412,0-0.797,0.112-1.154,0.336
		c-0.357,0.225-0.643,0.563-0.856,1.015c-0.214,0.451-0.321,0.965-0.321,1.54c0,0.572,0.142,1.005,0.424,1.298
		c0.283,0.292,0.672,0.438,1.17,0.438c0.494,0,1.026-0.163,1.596-0.489l0.257-1.224H397.307z"/>
	<path fill="#00FF00" d="M400.077,12.116l3.228-5.695h0.897l0.939,5.695h-0.737l-0.276-1.64h-2.303l-0.914,1.64H400.077z
		 M402.151,9.89h1.884l-0.222-1.43c-0.086-0.567-0.139-1.04-0.159-1.418c-0.13,0.326-0.318,0.713-0.567,1.161L402.151,9.89z
		 M403.289,6.071l0.73-1.068h0.886l-1.033,1.068H403.289z"/>
	<path fill="#00FF00" d="M405.915,12.116l1.192-5.695h2.39c0.471,0,0.828,0.04,1.072,0.119c0.242,0.079,0.434,0.227,0.572,0.444
		s0.208,0.492,0.208,0.823c0,0.464-0.151,0.849-0.454,1.154s-0.793,0.504-1.469,0.595c0.207,0.152,0.363,0.303,0.471,0.45
		c0.237,0.334,0.43,0.68,0.574,1.037l0.436,1.072h-0.852l-0.408-1.061c-0.146-0.383-0.315-0.715-0.504-0.994
		c-0.13-0.194-0.262-0.322-0.396-0.383s-0.354-0.092-0.656-0.092h-0.887l-0.527,2.529H405.915z M407.333,8.969h1.053
		c0.486,0,0.805-0.007,0.951-0.02c0.288-0.028,0.523-0.093,0.707-0.194c0.184-0.101,0.326-0.237,0.428-0.408
		s0.151-0.354,0.151-0.551c0-0.166-0.038-0.311-0.112-0.434c-0.075-0.123-0.174-0.206-0.295-0.251
		c-0.122-0.044-0.33-0.065-0.622-0.065h-1.856L407.333,8.969z"/>
</g>
<g>
	<path fill="#00FF00" d="M467.839,10.866l1.188-5.695h0.937l0.574,3.69c0.075,0.484,0.125,0.949,0.148,1.395
		c0.157-0.383,0.422-0.902,0.792-1.558l1.997-3.527h0.951l-1.188,5.695h-0.75l0.595-2.77c0.137-0.64,0.334-1.357,0.59-2.152
		c-0.162,0.37-0.365,0.77-0.605,1.196l-2.121,3.726h-0.734l-0.57-3.651c-0.053-0.334-0.09-0.724-0.113-1.17
		c-0.064,0.5-0.129,0.896-0.19,1.189l-0.757,3.632H467.839z"/>
	<path fill="#00FF00" d="M474.843,8.481c0-1.016,0.293-1.837,0.88-2.465c0.587-0.629,1.298-0.942,2.134-0.942
		c0.711,0,1.289,0.231,1.735,0.693s0.67,1.082,0.67,1.858c0,0.555-0.112,1.068-0.338,1.543c-0.169,0.354-0.381,0.661-0.638,0.918
		c-0.256,0.258-0.53,0.457-0.822,0.597c-0.389,0.187-0.801,0.279-1.236,0.279c-0.455,0-0.871-0.108-1.244-0.326
		c-0.375-0.217-0.658-0.521-0.852-0.911C474.938,9.335,474.843,8.92,474.843,8.481z M475.593,8.519c0,0.334,0.068,0.642,0.207,0.921
		c0.139,0.28,0.346,0.499,0.62,0.656c0.274,0.158,0.563,0.237,0.866,0.237c0.293,0,0.57-0.069,0.835-0.208s0.501-0.331,0.709-0.579
		c0.208-0.247,0.373-0.551,0.493-0.912c0.121-0.361,0.182-0.717,0.182-1.066c0-0.567-0.159-1.02-0.477-1.356
		c-0.317-0.336-0.709-0.505-1.175-0.505c-0.596,0-1.122,0.255-1.577,0.764C475.82,6.979,475.593,7.663,475.593,8.519z"/>
	<path fill="#00FF00" d="M480.657,10.866l1.189-5.695h1.717c0.412,0,0.727,0.03,0.943,0.09c0.312,0.08,0.576,0.224,0.797,0.429
		c0.221,0.206,0.386,0.463,0.498,0.771c0.111,0.309,0.166,0.654,0.166,1.037c0,0.459-0.068,0.876-0.207,1.253
		s-0.32,0.708-0.545,0.994c-0.224,0.286-0.458,0.511-0.703,0.673c-0.244,0.161-0.533,0.281-0.867,0.359
		c-0.254,0.06-0.566,0.089-0.937,0.089H480.657z M481.556,10.221h0.9c0.406,0,0.768-0.038,1.084-0.113
		c0.197-0.046,0.365-0.115,0.505-0.206c0.185-0.116,0.351-0.271,0.501-0.462c0.197-0.254,0.354-0.543,0.473-0.868
		c0.117-0.325,0.176-0.694,0.176-1.109c0-0.461-0.08-0.814-0.24-1.063c-0.16-0.247-0.365-0.411-0.613-0.491
		c-0.185-0.06-0.471-0.089-0.859-0.089h-1.006L481.556,10.221z"/>
	<path fill="#00FF00" d="M487.627,5.17h0.761l-0.729,3.5c-0.06,0.291-0.089,0.506-0.089,0.646c0,0.306,0.119,0.552,0.361,0.738
		c0.24,0.187,0.543,0.279,0.908,0.279c0.29,0,0.561-0.066,0.811-0.2c0.25-0.133,0.447-0.329,0.592-0.588
		c0.145-0.26,0.275-0.673,0.393-1.239l0.656-3.136h0.762l-0.695,3.341c-0.119,0.57-0.275,1.021-0.471,1.354
		c-0.193,0.332-0.463,0.6-0.808,0.8c-0.345,0.201-0.745,0.301-1.2,0.301c-0.43,0-0.803-0.071-1.117-0.213
		c-0.314-0.143-0.551-0.34-0.707-0.591s-0.234-0.536-0.234-0.854c0-0.199,0.053-0.543,0.158-1.029L487.627,5.17z"/>
	<path fill="#00FF00" d="M492.114,10.866l1.188-5.695h0.761l-1.053,5.051h2.957l-0.137,0.645H492.114z"/>
	<path fill="#00FF00" d="M497.712,10.866l0.459-2.202l-1.753-3.493h0.815l0.84,1.663c0.184,0.362,0.362,0.751,0.536,1.165
		c0.191-0.352,0.453-0.736,0.784-1.153l1.336-1.675h0.91l-2.72,3.551l-0.446,2.145H497.712z"/>
</g>
<g>
	<path fill="#00FF00" d="M282.672,12.727V6.373h1.294v5.275h3.216v1.079H282.672z"/>
	<path fill="#00FF00" d="M287.843,9.563c0-0.652,0.097-1.2,0.292-1.644c0.146-0.326,0.345-0.619,0.597-0.878
		c0.252-0.26,0.528-0.452,0.828-0.577c0.399-0.169,0.859-0.253,1.381-0.253c0.944,0,1.7,0.292,2.266,0.878
		c0.567,0.586,0.85,1.4,0.85,2.443c0,1.034-0.281,1.843-0.843,2.428c-0.563,0.584-1.314,0.876-2.255,0.876
		c-0.953,0-1.71-0.291-2.272-0.872S287.843,10.583,287.843,9.563z M289.175,9.519c0,0.726,0.167,1.275,0.503,1.65
		c0.335,0.374,0.76,0.562,1.276,0.562s0.939-0.187,1.27-0.558s0.496-0.929,0.496-1.672c0-0.734-0.161-1.281-0.483-1.643
		s-0.75-0.542-1.283-0.542s-0.963,0.183-1.289,0.548C289.339,8.231,289.175,8.782,289.175,9.519z"/>
	<path fill="#00FF00" d="M295.063,6.32h2.364c0.533,0,0.939,0.041,1.219,0.123c0.377,0.11,0.698,0.308,0.967,0.59
		c0.268,0.282,0.472,0.629,0.611,1.038s0.21,0.914,0.21,1.514c0,0.527-0.065,0.982-0.196,1.364c-0.16,0.466-0.39,0.843-0.687,1.132
		c-0.225,0.218-0.527,0.389-0.909,0.511c-0.286,0.091-0.667,0.136-1.145,0.136h-2.434V6.32z M295.613,4.637h0.992l0.472,0.651
		l0.507-0.651h0.987l-0.904,1.29h-1.136L295.613,4.637z M296.356,7.404v4.244h0.966c0.361,0,0.622-0.021,0.782-0.062
		c0.21-0.053,0.383-0.142,0.522-0.267s0.252-0.331,0.339-0.618s0.132-0.679,0.132-1.174s-0.045-0.875-0.132-1.141
		c-0.087-0.265-0.21-0.472-0.367-0.62s-0.357-0.249-0.599-0.302c-0.181-0.041-0.535-0.062-1.062-0.062H296.356z"/>
</g>
</svg>
