<?xml version="1.0" encoding="utf-8"?>
<!-- Generator: Adobe Illustrator 16.0.0, SVG Export Plug-In . SVG Version: 6.00 Build 0)  -->
<svg version="1.2" baseProfile="tiny" id="_x30_" xmlns="http://www.w3.org/2000/svg" xmlns:xlink="http://www.w3.org/1999/xlink"
	 x="0px" y="0px" width="597.098px" height="289.406px" viewBox="0 0 597.098 289.406" xml:space="preserve">
<g id="LWPOLYLINE_7_">
	<polygon stroke="#00EDED" stroke-width="2" stroke-linecap="round" stroke-linejoin="round" stroke-miterlimit="10" points="
		234.305,4.381 244.449,14.525 352.648,14.525 362.792,4.381 	"/>
</g>
<g id="LWPOLYLINE_6_">
	
		<polyline fill="#3C3C3C" stroke="#00EDED" stroke-width="2" stroke-linecap="round" stroke-linejoin="round" stroke-miterlimit="10" points="
		230.924,1 34.812,1 1,20.521 1,254.593 34.812,288.406 562.285,288.406 596.098,254.593 596.098,36.139 535.235,1 366.174,1 
		352.648,14.525 244.449,14.525 230.924,1 214.018,1 	"/>
</g>
<g id="LWPOLYLINE">
	<polygon stroke="#00EDED" stroke-width="2" stroke-linecap="round" stroke-linejoin="round" stroke-miterlimit="10" points="
		127.796,4.381 117.652,14.525 28.05,14.525 38.193,4.381 	"/>
</g>
<g id="LWPOLYLINE_1_">
	<polygon stroke="#00EDED" stroke-width="2" stroke-linecap="round" stroke-linejoin="round" stroke-miterlimit="10" points="
		224.162,4.381 214.018,14.525 124.415,14.525 134.559,4.381 	"/>
</g>
<g id="LWPOLYLINE_2_">
	<polygon stroke="#00EDED" stroke-width="2" stroke-linecap="round" stroke-linejoin="round" stroke-miterlimit="10" points="
		449.014,4.381 438.87,14.525 359.411,14.525 369.555,4.381 	"/>
</g>
<g id="LWPOLYLINE_3_">
	<polygon stroke="#00EDED" stroke-width="2" stroke-linecap="round" stroke-linejoin="round" stroke-miterlimit="10" points="
		535.235,4.381 525.092,14.525 445.633,14.525 455.776,4.381 	"/>
</g>
<g id="LINE">
	
		<line fill="none" stroke="#00EDED" stroke-width="2" stroke-linecap="round" stroke-linejoin="round" stroke-miterlimit="10" x1="234.305" y1="4.381" x2="362.792" y2="4.381"/>
</g>
<g id="LWPOLYLINE_4_">
	<polygon fill="none" stroke="#FF0000" stroke-linecap="round" stroke-linejoin="round" stroke-miterlimit="10" points="
		348.362,5.577 356.815,5.577 350.258,12.134 341.805,12.134 	"/>
</g>
<g id="LINE_1_">
	
		<line fill="none" stroke="#FF0000" stroke-linecap="round" stroke-linejoin="round" stroke-miterlimit="10" x1="347.704" y1="7.25" x2="350.915" y2="10.461"/>
</g>
<g id="LINE_2_">
	
		<line fill="none" stroke="#FF0000" stroke-linecap="round" stroke-linejoin="round" stroke-miterlimit="10" x1="341.805" y1="12.134" x2="348.362" y2="5.577"/>
</g>
<g id="LINE_3_">
	
		<line fill="none" stroke="#FF0000" stroke-linecap="round" stroke-linejoin="round" stroke-miterlimit="10" x1="347.704" y1="10.461" x2="350.915" y2="7.25"/>
</g>
<g>
	<path fill="#00FF00" d="M58.147,11.511l-0.35-5.695h0.773l0.132,2.816c0.008,0.135,0.021,0.5,0.039,1.096
		c0.005,0.166,0.008,0.282,0.008,0.35c0,0.044-0.001,0.173-0.004,0.385c0.316-0.647,0.544-1.104,0.684-1.367l1.732-3.279h0.785
		l0.19,3.329c0.021,0.381,0.035,0.84,0.043,1.376c0.046-0.133,0.129-0.329,0.249-0.591c0.189-0.422,0.329-0.724,0.419-0.905
		l1.624-3.209h0.777l-2.898,5.695h-0.816l-0.19-3.449c-0.018-0.296-0.032-0.658-0.042-1.088c-0.158,0.359-0.29,0.64-0.396,0.839
		l-1.973,3.698H58.147z"/>
	<path fill="#00FF00" d="M64.67,11.511l1.192-5.695h4.11l-0.136,0.649h-3.349l-0.373,1.771h3.263l-0.136,0.648h-3.263l-0.412,1.981
		h3.585l-0.136,0.645H64.67z"/>
	<path fill="#00FF00" d="M69.459,11.511l3.228-5.695h0.897l0.94,5.695h-0.738l-0.276-1.64h-2.304l-0.913,1.64H69.459z M71.534,9.286
		h1.884l-0.222-1.43c-0.085-0.567-0.138-1.04-0.159-1.418c-0.129,0.326-0.318,0.713-0.567,1.161L71.534,9.286z"/>
	<path fill="#00FF00" d="M75.267,11.511l1.193-5.695h2.377c0.412,0,0.72,0.048,0.926,0.143c0.206,0.094,0.376,0.256,0.511,0.485
		c0.135,0.229,0.202,0.486,0.202,0.771c0,0.236-0.048,0.476-0.144,0.719c-0.096,0.244-0.217,0.444-0.363,0.603
		c-0.146,0.158-0.295,0.277-0.445,0.357c-0.15,0.08-0.311,0.14-0.482,0.179C78.678,9.157,78.309,9.2,77.936,9.2H76.51l-0.482,2.312
		H75.267z M76.646,8.555h1.255c0.487,0,0.844-0.053,1.072-0.157c0.228-0.105,0.411-0.265,0.548-0.48
		c0.137-0.215,0.206-0.442,0.206-0.684c0-0.187-0.036-0.338-0.108-0.456c-0.073-0.118-0.175-0.205-0.307-0.261
		c-0.132-0.056-0.386-0.083-0.761-0.083h-1.461L76.646,8.555z"/>
	<path fill="#00FF00" d="M80.958,9.126c0-1.016,0.293-1.837,0.88-2.465c0.586-0.629,1.298-0.942,2.134-0.942
		c0.71,0,1.288,0.231,1.735,0.693s0.67,1.082,0.67,1.858c0,0.555-0.113,1.068-0.338,1.543c-0.168,0.354-0.381,0.661-0.637,0.918
		c-0.256,0.258-0.531,0.457-0.823,0.597c-0.389,0.187-0.8,0.279-1.235,0.279c-0.456,0-0.871-0.108-1.245-0.326
		c-0.375-0.217-0.658-0.521-0.851-0.911C81.055,9.981,80.958,9.566,80.958,9.126z M81.708,9.165c0,0.334,0.069,0.642,0.208,0.921
		c0.139,0.28,0.345,0.499,0.62,0.656c0.274,0.158,0.563,0.237,0.866,0.237c0.292,0,0.571-0.069,0.835-0.208s0.5-0.331,0.709-0.579
		c0.208-0.247,0.373-0.551,0.494-0.912c0.12-0.361,0.181-0.717,0.181-1.066c0-0.567-0.159-1.02-0.476-1.356
		c-0.317-0.336-0.709-0.505-1.175-0.505c-0.596,0-1.122,0.255-1.578,0.764C81.936,7.625,81.708,8.308,81.708,9.165z"/>
	<path fill="#00FF00" d="M86.809,11.511l1.192-5.695h0.738l0.959,2.137c0.292,0.653,0.524,1.202,0.695,1.647
		c0.098,0.259,0.212,0.608,0.342,1.049c0.07-0.479,0.158-0.974,0.264-1.484l0.699-3.349h0.742l-1.189,5.695h-0.753l-1.414-3.29
		c-0.251-0.58-0.447-1.092-0.587-1.535c-0.039,0.371-0.114,0.825-0.225,1.364l-0.723,3.461H86.809z"/>
	<path fill="#00FF00" d="M92.539,11.511l1.192-5.695h2.389c0.471,0,0.829,0.04,1.072,0.119c0.243,0.079,0.435,0.227,0.573,0.444
		c0.139,0.218,0.208,0.492,0.208,0.823c0,0.464-0.151,0.849-0.455,1.154c-0.303,0.306-0.792,0.504-1.468,0.595
		c0.207,0.152,0.364,0.303,0.47,0.45c0.238,0.334,0.43,0.68,0.575,1.037l0.435,1.072H96.68l-0.408-1.061
		c-0.147-0.383-0.316-0.715-0.505-0.994c-0.129-0.194-0.262-0.322-0.396-0.383c-0.135-0.061-0.354-0.092-0.657-0.092h-0.886
		L93.3,11.511H92.539z M93.957,8.365h1.053c0.487,0,0.804-0.007,0.952-0.02c0.288-0.028,0.523-0.093,0.707-0.194
		c0.184-0.101,0.326-0.237,0.427-0.408s0.151-0.354,0.151-0.551c0-0.166-0.038-0.311-0.112-0.434
		c-0.075-0.123-0.174-0.206-0.295-0.251c-0.122-0.044-0.329-0.065-0.622-0.065H94.36L93.957,8.365z"/>
	<path fill="#00FF00" d="M99.838,11.511l0.458-2.202l-1.752-3.493h0.816l0.839,1.663c0.184,0.362,0.362,0.751,0.536,1.165
		c0.191-0.352,0.453-0.736,0.785-1.153l1.336-1.675h0.909l-2.719,3.551l-0.447,2.145H99.838z"/>
</g>
<g>
	<path fill="#00FF00" d="M159.841,9.506l0.754,0.105c-0.238,0.657-0.585,1.155-1.041,1.491c-0.456,0.337-0.967,0.505-1.535,0.505
		c-0.691,0-1.24-0.211-1.645-0.633s-0.608-1.026-0.608-1.814c0-1.025,0.308-1.873,0.924-2.544c0.549-0.599,1.231-0.897,2.047-0.897
		c0.604,0,1.092,0.162,1.466,0.485c0.375,0.324,0.591,0.759,0.651,1.306l-0.711,0.065c-0.075-0.411-0.23-0.719-0.464-0.922
		c-0.234-0.204-0.537-0.306-0.907-0.306c-0.697,0-1.26,0.31-1.69,0.929c-0.373,0.533-0.56,1.167-0.56,1.899
		c0,0.586,0.144,1.032,0.431,1.341c0.288,0.308,0.662,0.462,1.123,0.462c0.394,0,0.75-0.128,1.068-0.385
		C159.464,10.338,159.696,9.975,159.841,9.506z"/>
	<path fill="#00FF00" d="M160.63,11.511l3.228-5.695h0.897l0.94,5.695h-0.738l-0.276-1.64h-2.304l-0.913,1.64H160.63z
		 M162.704,9.286h1.884l-0.222-1.43c-0.085-0.567-0.138-1.04-0.159-1.418c-0.129,0.326-0.318,0.713-0.567,1.161L162.704,9.286z"/>
	<path fill="#00FF00" d="M166.468,11.511l1.192-5.695h2.389c0.471,0,0.829,0.04,1.072,0.119c0.243,0.079,0.435,0.227,0.573,0.444
		c0.139,0.218,0.208,0.492,0.208,0.823c0,0.464-0.151,0.849-0.455,1.154c-0.303,0.306-0.792,0.504-1.468,0.595
		c0.207,0.152,0.364,0.303,0.47,0.45c0.238,0.334,0.43,0.68,0.575,1.037l0.435,1.072h-0.851l-0.408-1.061
		c-0.147-0.383-0.316-0.715-0.505-0.994c-0.129-0.194-0.262-0.322-0.396-0.383c-0.135-0.061-0.354-0.092-0.657-0.092h-0.886
		l-0.528,2.529H166.468z M167.886,8.365h1.053c0.487,0,0.804-0.007,0.952-0.02c0.288-0.028,0.523-0.093,0.707-0.194
		c0.184-0.101,0.326-0.237,0.427-0.408s0.151-0.354,0.151-0.551c0-0.166-0.038-0.311-0.112-0.434
		c-0.075-0.123-0.174-0.206-0.295-0.251c-0.122-0.044-0.329-0.065-0.622-0.065h-1.857L167.886,8.365z"/>
	<path fill="#00FF00" d="M175.1,9.266l0.136-0.646h2.494l-0.485,2.319c-0.313,0.197-0.671,0.357-1.072,0.482
		c-0.401,0.124-0.796,0.186-1.185,0.186c-0.829,0-1.448-0.249-1.857-0.749c-0.344-0.423-0.517-0.965-0.517-1.628
		c0-0.684,0.151-1.306,0.453-1.866c0.302-0.562,0.683-0.976,1.142-1.243c0.459-0.269,0.971-0.402,1.533-0.402
		c0.404,0,0.767,0.073,1.087,0.22c0.321,0.146,0.567,0.342,0.738,0.586c0.171,0.245,0.294,0.564,0.369,0.958l-0.746,0.081
		c-0.08-0.391-0.247-0.69-0.499-0.898c-0.252-0.209-0.577-0.313-0.973-0.313c-0.412,0-0.796,0.112-1.154,0.336
		c-0.357,0.225-0.643,0.563-0.856,1.015c-0.214,0.451-0.321,0.965-0.321,1.54c0,0.572,0.141,1.005,0.424,1.298
		c0.282,0.292,0.672,0.438,1.169,0.438c0.495,0,1.027-0.163,1.597-0.489l0.256-1.224H175.1z"/>
	<path fill="#00FF00" d="M178.756,9.126c0-1.016,0.293-1.837,0.88-2.465c0.586-0.629,1.298-0.942,2.134-0.942
		c0.71,0,1.288,0.231,1.735,0.693s0.67,1.082,0.67,1.858c0,0.555-0.113,1.068-0.338,1.543c-0.168,0.354-0.381,0.661-0.637,0.918
		c-0.256,0.258-0.531,0.457-0.823,0.597c-0.389,0.187-0.8,0.279-1.235,0.279c-0.456,0-0.871-0.108-1.245-0.326
		c-0.375-0.217-0.658-0.521-0.851-0.911C178.852,9.981,178.756,9.566,178.756,9.126z M179.505,9.165
		c0,0.334,0.069,0.642,0.208,0.921c0.139,0.28,0.345,0.499,0.62,0.656c0.274,0.158,0.563,0.237,0.866,0.237
		c0.292,0,0.571-0.069,0.835-0.208s0.5-0.331,0.709-0.579c0.208-0.247,0.373-0.551,0.494-0.912c0.12-0.361,0.181-0.717,0.181-1.066
		c0-0.567-0.159-1.02-0.476-1.356c-0.317-0.336-0.709-0.505-1.175-0.505c-0.596,0-1.122,0.255-1.578,0.764
		C179.733,7.625,179.505,8.308,179.505,9.165z"/>
</g>
<g>
	<path fill="#00FF00" d="M378.229,11.511l1.192-5.695h0.758l-0.493,2.366h2.952l0.493-2.366h0.762l-1.188,5.695h-0.762l0.56-2.685
		h-2.948l-0.563,2.685H378.229z"/>
	<path fill="#00FF00" d="M383.482,11.511l3.228-5.695h0.897l0.939,5.695h-0.737l-0.276-1.64h-2.303l-0.914,1.64H383.482z
		 M385.557,9.286h1.884l-0.222-1.43c-0.086-0.567-0.139-1.04-0.159-1.418c-0.13,0.326-0.318,0.713-0.567,1.161L385.557,9.286z"/>
	<path fill="#00FF00" d="M389.336,11.511l1.192-5.695h0.738l0.96,2.137c0.292,0.653,0.523,1.202,0.695,1.647
		c0.098,0.259,0.212,0.608,0.342,1.049c0.069-0.479,0.157-0.974,0.264-1.484l0.699-3.349h0.742l-1.189,5.695h-0.753l-1.414-3.29
		c-0.251-0.58-0.446-1.092-0.587-1.535c-0.039,0.371-0.113,0.825-0.225,1.364l-0.723,3.461H389.336z"/>
	<path fill="#00FF00" d="M397.952,9.266l0.136-0.646h2.494l-0.485,2.319c-0.313,0.197-0.671,0.357-1.072,0.482
		c-0.401,0.124-0.796,0.186-1.185,0.186c-0.829,0-1.448-0.249-1.857-0.749c-0.344-0.423-0.517-0.965-0.517-1.628
		c0-0.684,0.151-1.306,0.452-1.866c0.303-0.562,0.684-0.976,1.143-1.243c0.459-0.269,0.971-0.402,1.533-0.402
		c0.403,0,0.766,0.073,1.087,0.22s0.567,0.342,0.738,0.586c0.171,0.245,0.294,0.564,0.369,0.958l-0.746,0.081
		c-0.08-0.391-0.247-0.69-0.499-0.898c-0.252-0.209-0.577-0.313-0.973-0.313c-0.412,0-0.797,0.112-1.154,0.336
		c-0.357,0.225-0.643,0.563-0.856,1.015c-0.214,0.451-0.321,0.965-0.321,1.54c0,0.572,0.142,1.005,0.424,1.298
		c0.283,0.292,0.672,0.438,1.17,0.438c0.494,0,1.026-0.163,1.596-0.489l0.257-1.224H397.952z"/>
	<path fill="#00FF00" d="M400.723,11.511l3.228-5.695h0.897l0.939,5.695h-0.737l-0.276-1.64h-2.303l-0.914,1.64H400.723z
		 M402.797,9.286h1.884l-0.222-1.43c-0.086-0.567-0.139-1.04-0.159-1.418c-0.13,0.326-0.318,0.713-0.567,1.161L402.797,9.286z"/>
	<path fill="#00FF00" d="M406.561,11.511l1.192-5.695h2.39c0.471,0,0.828,0.04,1.072,0.119c0.242,0.079,0.434,0.227,0.572,0.444
		s0.208,0.492,0.208,0.823c0,0.464-0.151,0.849-0.454,1.154s-0.793,0.504-1.469,0.595c0.207,0.152,0.363,0.303,0.471,0.45
		c0.237,0.334,0.43,0.68,0.574,1.037l0.436,1.072h-0.852l-0.408-1.061c-0.146-0.383-0.315-0.715-0.504-0.994
		c-0.13-0.194-0.262-0.322-0.396-0.383s-0.354-0.092-0.656-0.092h-0.887l-0.527,2.529H406.561z M407.979,8.365h1.053
		c0.486,0,0.805-0.007,0.951-0.02c0.288-0.028,0.523-0.093,0.707-0.194c0.184-0.101,0.326-0.237,0.428-0.408
		s0.151-0.354,0.151-0.551c0-0.166-0.038-0.311-0.112-0.434c-0.075-0.123-0.174-0.206-0.295-0.251
		c-0.122-0.044-0.33-0.065-0.622-0.065h-1.856L407.979,8.365z"/>
</g>
<g>
	<path fill="#00FF00" d="M468.484,11.511l1.188-5.695h0.937l0.574,3.69c0.075,0.484,0.125,0.949,0.148,1.395
		c0.157-0.383,0.422-0.902,0.792-1.558l1.997-3.527h0.951l-1.188,5.695h-0.75l0.595-2.77c0.137-0.64,0.334-1.357,0.59-2.152
		c-0.162,0.37-0.365,0.77-0.605,1.196l-2.121,3.726h-0.734l-0.57-3.651c-0.053-0.334-0.09-0.724-0.113-1.17
		c-0.064,0.5-0.129,0.896-0.19,1.189l-0.757,3.632H468.484z"/>
	<path fill="#00FF00" d="M475.488,9.126c0-1.016,0.293-1.837,0.88-2.465c0.587-0.629,1.298-0.942,2.134-0.942
		c0.711,0,1.289,0.231,1.735,0.693s0.67,1.082,0.67,1.858c0,0.555-0.112,1.068-0.338,1.543c-0.169,0.354-0.381,0.661-0.638,0.918
		c-0.256,0.258-0.53,0.457-0.822,0.597c-0.389,0.187-0.801,0.279-1.236,0.279c-0.455,0-0.871-0.108-1.244-0.326
		c-0.375-0.217-0.658-0.521-0.852-0.911C475.584,9.981,475.488,9.566,475.488,9.126z M476.238,9.165
		c0,0.334,0.068,0.642,0.207,0.921c0.139,0.28,0.346,0.499,0.62,0.656c0.274,0.158,0.563,0.237,0.866,0.237
		c0.293,0,0.57-0.069,0.835-0.208s0.501-0.331,0.709-0.579c0.208-0.247,0.373-0.551,0.493-0.912
		c0.121-0.361,0.182-0.717,0.182-1.066c0-0.567-0.159-1.02-0.477-1.356c-0.317-0.336-0.709-0.505-1.175-0.505
		c-0.596,0-1.122,0.255-1.577,0.764C476.466,7.625,476.238,8.308,476.238,9.165z"/>
	<path fill="#00FF00" d="M481.303,11.511l1.189-5.695h1.717c0.412,0,0.727,0.03,0.943,0.09c0.312,0.08,0.576,0.224,0.797,0.429
		c0.221,0.206,0.386,0.463,0.498,0.771c0.111,0.309,0.166,0.654,0.166,1.037c0,0.459-0.068,0.876-0.207,1.253
		s-0.32,0.708-0.545,0.994c-0.224,0.286-0.458,0.511-0.703,0.673c-0.244,0.161-0.533,0.281-0.867,0.359
		c-0.254,0.06-0.566,0.089-0.937,0.089H481.303z M482.201,10.867h0.9c0.406,0,0.768-0.038,1.084-0.113
		c0.197-0.046,0.365-0.115,0.505-0.206c0.185-0.116,0.351-0.271,0.501-0.462c0.197-0.254,0.354-0.543,0.473-0.868
		c0.117-0.325,0.176-0.694,0.176-1.109c0-0.461-0.08-0.814-0.24-1.063c-0.16-0.247-0.365-0.411-0.613-0.491
		c-0.185-0.06-0.471-0.089-0.859-0.089h-1.006L482.201,10.867z"/>
	<path fill="#00FF00" d="M488.272,5.816h0.761l-0.729,3.5c-0.06,0.291-0.089,0.506-0.089,0.646c0,0.306,0.119,0.552,0.361,0.738
		c0.24,0.187,0.543,0.279,0.908,0.279c0.29,0,0.561-0.066,0.811-0.2c0.25-0.133,0.447-0.329,0.592-0.588
		c0.145-0.26,0.275-0.673,0.393-1.239l0.656-3.136h0.762l-0.695,3.341c-0.119,0.57-0.275,1.021-0.471,1.354
		c-0.193,0.332-0.463,0.6-0.808,0.8c-0.345,0.201-0.745,0.301-1.2,0.301c-0.43,0-0.803-0.071-1.117-0.213
		c-0.314-0.143-0.551-0.34-0.707-0.591s-0.234-0.536-0.234-0.854c0-0.199,0.053-0.543,0.158-1.029L488.272,5.816z"/>
	<path fill="#00FF00" d="M492.76,11.511l1.188-5.695h0.761l-1.053,5.051h2.957l-0.137,0.645H492.76z"/>
	<path fill="#00FF00" d="M497.223,11.511l1.192-5.695h4.11l-0.137,0.649h-3.348l-0.373,1.771h3.263l-0.136,0.648h-3.264
		l-0.411,1.981h3.585l-0.135,0.645H497.223z"/>
	<path fill="#00FF00" d="M502.731,9.669l0.745-0.069l-0.008,0.198c0,0.22,0.051,0.421,0.152,0.604
		c0.101,0.183,0.268,0.324,0.501,0.424s0.511,0.149,0.831,0.149c0.456,0,0.804-0.1,1.043-0.299c0.24-0.199,0.359-0.428,0.359-0.684
		c0-0.179-0.063-0.342-0.189-0.49c-0.131-0.145-0.484-0.342-1.061-0.59c-0.449-0.194-0.754-0.344-0.918-0.447
		c-0.256-0.168-0.445-0.352-0.566-0.55c-0.122-0.197-0.183-0.424-0.183-0.678c0-0.292,0.08-0.557,0.241-0.792
		c0.16-0.236,0.395-0.416,0.705-0.54c0.309-0.124,0.658-0.187,1.047-0.187c0.463,0,0.854,0.077,1.173,0.233
		c0.318,0.155,0.55,0.362,0.693,0.621s0.216,0.507,0.216,0.742c0,0.023-0.002,0.062-0.004,0.116l-0.734,0.059
		c0-0.161-0.015-0.286-0.043-0.377c-0.052-0.158-0.132-0.291-0.24-0.4c-0.109-0.108-0.259-0.196-0.449-0.262
		c-0.19-0.066-0.403-0.1-0.639-0.1c-0.414,0-0.737,0.094-0.968,0.28c-0.176,0.143-0.265,0.331-0.265,0.566
		c0,0.141,0.037,0.266,0.109,0.375c0.072,0.11,0.203,0.219,0.393,0.325c0.135,0.074,0.454,0.224,0.959,0.446
		c0.41,0.182,0.691,0.324,0.848,0.428c0.207,0.137,0.366,0.304,0.478,0.499s0.167,0.417,0.167,0.666
		c0,0.309-0.094,0.593-0.281,0.853c-0.188,0.261-0.447,0.462-0.779,0.604c-0.332,0.142-0.711,0.213-1.139,0.213
		c-0.645,0-1.171-0.14-1.578-0.421C502.939,10.906,502.734,10.4,502.731,9.669z"/>
</g>
<g>
	<path fill="#00FF00" d="M283.302,10.108l1.259-0.122c0.076,0.423,0.229,0.732,0.461,0.931c0.232,0.198,0.544,0.298,0.938,0.298
		c0.417,0,0.73-0.089,0.942-0.265c0.211-0.177,0.317-0.383,0.317-0.618c0-0.152-0.044-0.281-0.133-0.387
		c-0.089-0.106-0.244-0.199-0.465-0.278c-0.152-0.052-0.497-0.146-1.036-0.279c-0.693-0.172-1.18-0.383-1.459-0.634
		c-0.394-0.353-0.59-0.782-0.59-1.289c0-0.326,0.092-0.632,0.277-0.916s0.452-0.5,0.8-0.648s0.769-0.223,1.261-0.223
		c0.804,0,1.41,0.176,1.816,0.528s0.62,0.823,0.64,1.411l-1.293,0.058c-0.056-0.329-0.174-0.566-0.356-0.711
		c-0.182-0.144-0.455-0.216-0.819-0.216c-0.375,0-0.67,0.077-0.883,0.231c-0.137,0.1-0.205,0.231-0.205,0.397
		c0,0.152,0.064,0.281,0.192,0.39c0.164,0.137,0.56,0.279,1.189,0.428s1.095,0.303,1.396,0.461c0.301,0.159,0.537,0.376,0.708,0.651
		c0.17,0.275,0.255,0.615,0.255,1.021c0,0.367-0.102,0.711-0.306,1.031c-0.204,0.32-0.493,0.559-0.866,0.715
		c-0.373,0.156-0.837,0.233-1.394,0.233c-0.81,0-1.432-0.187-1.866-0.562C283.646,11.371,283.386,10.825,283.302,10.108z"/>
	<path fill="#00FF00" d="M289.604,12.193V5.786h1.293v2.522h2.535V5.786h1.293v6.407h-1.293V9.391h-2.535v2.802H289.604z"/>
	<path fill="#00FF00" d="M296.024,12.193V5.786h1.293v6.407H296.024z"/>
	<path fill="#00FF00" d="M298.55,12.193V5.786h2.075c0.787,0,1.3,0.032,1.539,0.097c0.367,0.096,0.674,0.305,0.922,0.627
		s0.371,0.738,0.371,1.248c0,0.393-0.07,0.724-0.214,0.992c-0.143,0.268-0.324,0.479-0.544,0.631
		c-0.221,0.153-0.443,0.255-0.671,0.304c-0.309,0.062-0.756,0.092-1.342,0.092h-0.843v2.417H298.55z M299.844,6.87v1.818h0.707
		c0.51,0,0.852-0.033,1.023-0.101s0.307-0.172,0.404-0.314s0.146-0.309,0.146-0.498c0-0.233-0.068-0.426-0.206-0.577
		c-0.137-0.151-0.31-0.246-0.521-0.284c-0.154-0.029-0.465-0.044-0.93-0.044H299.844z"/>
</g>
</svg>
