<?xml version="1.0" encoding="utf-8"?>
<!-- Generator: Adobe Illustrator 16.0.0, SVG Export Plug-In . SVG Version: 6.00 Build 0)  -->
<svg version="1.2" baseProfile="tiny" id="_x30_" xmlns="http://www.w3.org/2000/svg" xmlns:xlink="http://www.w3.org/1999/xlink"
	 x="0px" y="0px" width="595.807px" height="288.115px" viewBox="0 0 595.807 288.115" xml:space="preserve">
<g id="LWPOLYLINE_6_">
	
		<polyline fill="#3C3C3C" stroke="#00EDED" stroke-width="2" stroke-linecap="round" stroke-linejoin="round" stroke-miterlimit="10" points="
		230.278,0.354 34.167,0.354 0.354,19.876 0.354,253.948 34.167,287.76 561.64,287.76 595.452,253.948 595.452,35.493 534.59,0.354 
		365.528,0.354 352.003,13.879 243.804,13.879 230.278,0.354 213.373,0.354 	"/>
</g>
<g id="LWPOLYLINE">
	<polygon stroke="#00EDED" stroke-width="2" stroke-linecap="round" stroke-linejoin="round" stroke-miterlimit="10" points="
		127.151,3.736 117.007,13.879 27.404,13.879 37.548,3.736 	"/>
</g>
<g id="LWPOLYLINE_1_">
	<polygon stroke="#00EDED" stroke-width="2" stroke-linecap="round" stroke-linejoin="round" stroke-miterlimit="10" points="
		223.516,3.736 213.373,13.879 123.77,13.879 133.913,3.736 	"/>
</g>
<g id="LWPOLYLINE_2_">
	<polygon stroke="#00EDED" stroke-width="2" stroke-linecap="round" stroke-linejoin="round" stroke-miterlimit="10" points="
		448.368,3.736 438.225,13.879 358.766,13.879 368.909,3.736 	"/>
</g>
<g id="LWPOLYLINE_3_">
	<polygon stroke="#00EDED" stroke-width="2" stroke-linecap="round" stroke-linejoin="round" stroke-miterlimit="10" points="
		534.59,3.736 524.446,13.879 444.987,13.879 455.131,3.736 	"/>
</g>
<g id="LWPOLYLINE_7_">
	<polygon stroke="#00EDED" stroke-width="2" stroke-linecap="round" stroke-linejoin="round" stroke-miterlimit="10" points="
		233.66,3.736 243.804,13.879 352.003,13.879 362.146,3.736 	"/>
</g>
<g id="LINE_2_">
	
		<path fill="none" stroke="#FF0000" stroke-width="0.7087" stroke-linecap="round" stroke-linejoin="round" stroke-miterlimit="10" d="
		M347.717,4.931"/>
	
		<path fill="none" stroke="#FF0000" stroke-width="0.7087" stroke-linecap="round" stroke-linejoin="round" stroke-miterlimit="10" d="
		M341.159,11.489"/>
</g>
<g>
	<g id="LWPOLYLINE_4_">
		<polygon fill="none" stroke="#FF0000" stroke-linecap="round" stroke-linejoin="round" stroke-miterlimit="10" points="
			347.717,4.931 356.17,4.931 349.612,11.489 341.159,11.489 		"/>
	</g>
	<g id="LINE_1_">
		
			<line fill="none" stroke="#FF0000" stroke-linecap="round" stroke-linejoin="round" stroke-miterlimit="10" x1="347.059" y1="6.604" x2="350.27" y2="9.815"/>
	</g>
	<g id="LINE_3_">
		
			<line fill="none" stroke="#FF0000" stroke-linecap="round" stroke-linejoin="round" stroke-miterlimit="10" x1="347.059" y1="9.815" x2="350.27" y2="6.604"/>
	</g>
</g>
<g id="LWPOLYLINE_5_">
	
		<polyline fill="none" stroke="#00EDED" stroke-width="2" stroke-linecap="round" stroke-linejoin="round" stroke-miterlimit="10" points="
		280.997,287.76 308.047,260.709 308.047,160.963 287.76,140.676 287.76,40.929 314.81,13.879 	"/>
</g>
<g>
	<path fill="#00FF00" d="M57.07,12.116l1.189-5.695h0.936l0.575,3.69c0.075,0.484,0.125,0.949,0.148,1.395
		c0.158-0.383,0.422-0.902,0.792-1.558l1.997-3.527h0.952l-1.188,5.695h-0.75l0.594-2.77c0.137-0.64,0.334-1.357,0.591-2.152
		c-0.163,0.37-0.365,0.77-0.606,1.196l-2.121,3.726h-0.734l-0.571-3.651c-0.052-0.334-0.089-0.724-0.113-1.17
		c-0.065,0.5-0.128,0.896-0.19,1.189l-0.757,3.632H57.07z"/>
	<path fill="#00FF00" d="M63.802,12.116l1.192-5.695h0.758l-1.189,5.695H63.802z"/>
	<path fill="#00FF00" d="M65.947,12.116l1.192-5.695h0.738l0.959,2.137c0.292,0.653,0.524,1.202,0.695,1.647
		c0.098,0.259,0.212,0.608,0.342,1.049c0.07-0.479,0.158-0.974,0.264-1.484l0.699-3.349h0.742l-1.189,5.695h-0.753l-1.414-3.29
		c-0.251-0.58-0.447-1.092-0.587-1.535c-0.039,0.371-0.114,0.825-0.225,1.364l-0.723,3.461H65.947z"/>
	<path fill="#00FF00" d="M71.661,12.116l1.192-5.695h4.11L76.827,7.07h-3.349l-0.373,1.771h3.263L76.233,9.49H72.97l-0.412,1.981
		h3.585l-0.136,0.645H71.661z"/>
	<path fill="#00FF00" d="M76.983,12.116l1.192-5.695h2.389c0.471,0,0.829,0.04,1.072,0.119c0.243,0.079,0.435,0.227,0.573,0.444
		c0.139,0.218,0.208,0.492,0.208,0.823c0,0.464-0.151,0.849-0.455,1.154c-0.303,0.306-0.792,0.504-1.468,0.595
		c0.207,0.152,0.364,0.303,0.47,0.45c0.238,0.334,0.43,0.68,0.575,1.037l0.435,1.072h-0.851l-0.408-1.061
		c-0.147-0.383-0.316-0.715-0.505-0.994c-0.129-0.194-0.262-0.322-0.396-0.383c-0.135-0.061-0.354-0.092-0.657-0.092h-0.886
		l-0.528,2.529H76.983z M78.401,8.969h1.053c0.487,0,0.804-0.007,0.952-0.02c0.288-0.028,0.523-0.093,0.707-0.194
		c0.184-0.101,0.326-0.237,0.427-0.408s0.151-0.354,0.151-0.551c0-0.166-0.038-0.311-0.112-0.434
		c-0.075-0.123-0.174-0.206-0.295-0.251c-0.122-0.044-0.329-0.065-0.622-0.065h-1.857L78.401,8.969z"/>
	<path fill="#00FF00" d="M82.196,12.116l3.228-5.695h0.897l0.94,5.695h-0.738l-0.276-1.64h-2.304l-0.913,1.64H82.196z M84.271,9.89
		h1.884l-0.222-1.43c-0.085-0.567-0.138-1.04-0.159-1.418c-0.129,0.326-0.318,0.713-0.567,1.161L84.271,9.89z M85.409,6.071
		l0.73-1.068h0.886l-1.033,1.068H85.409z"/>
	<path fill="#00FF00" d="M87.98,12.116l1.189-5.695h0.761l-1.053,5.051h2.957l-0.136,0.645H87.98z"/>
	<path fill="#00FF00" d="M93.578,12.116l0.458-2.202L92.284,6.42H93.1l0.839,1.663c0.184,0.362,0.362,0.751,0.536,1.165
		c0.191-0.352,0.453-0.736,0.785-1.153l1.336-1.675h0.909l-2.719,3.551l-0.447,2.145H93.578z"/>
</g>
<g>
	<path fill="#00FF00" d="M155.051,10.866l1.189-5.695h0.936l0.575,3.69c0.075,0.484,0.125,0.949,0.148,1.395
		c0.158-0.383,0.422-0.902,0.792-1.558l1.997-3.527h0.952l-1.188,5.695h-0.75l0.594-2.77c0.137-0.64,0.334-1.357,0.591-2.152
		c-0.163,0.37-0.365,0.77-0.606,1.196l-2.121,3.726h-0.734l-0.571-3.651c-0.052-0.334-0.089-0.724-0.113-1.17
		c-0.065,0.5-0.128,0.896-0.19,1.189l-0.757,3.632H155.051z"/>
	<path fill="#00FF00" d="M162.055,8.481c0-1.016,0.293-1.837,0.88-2.465c0.586-0.629,1.298-0.942,2.134-0.942
		c0.71,0,1.288,0.231,1.735,0.693s0.67,1.082,0.67,1.858c0,0.555-0.113,1.068-0.338,1.543c-0.168,0.354-0.381,0.661-0.637,0.918
		c-0.256,0.258-0.531,0.457-0.823,0.597c-0.389,0.187-0.8,0.279-1.235,0.279c-0.456,0-0.871-0.108-1.245-0.326
		c-0.375-0.217-0.658-0.521-0.851-0.911C162.151,9.335,162.055,8.92,162.055,8.481z M162.805,8.519c0,0.334,0.069,0.642,0.208,0.921
		c0.139,0.28,0.345,0.499,0.62,0.656c0.274,0.158,0.563,0.237,0.866,0.237c0.292,0,0.571-0.069,0.835-0.208s0.5-0.331,0.709-0.579
		c0.208-0.247,0.373-0.551,0.494-0.912c0.12-0.361,0.181-0.717,0.181-1.066c0-0.567-0.159-1.02-0.476-1.356
		c-0.317-0.336-0.709-0.505-1.175-0.505c-0.596,0-1.122,0.255-1.578,0.764C163.033,6.979,162.805,7.663,162.805,8.519z"/>
	<path fill="#00FF00" d="M167.87,10.866l1.188-5.695h1.717c0.412,0,0.727,0.03,0.944,0.09c0.311,0.08,0.576,0.224,0.796,0.429
		c0.22,0.206,0.386,0.463,0.498,0.771c0.111,0.309,0.167,0.654,0.167,1.037c0,0.459-0.069,0.876-0.208,1.253
		s-0.32,0.708-0.544,0.994s-0.458,0.511-0.703,0.673c-0.245,0.161-0.534,0.281-0.868,0.359c-0.254,0.06-0.566,0.089-0.936,0.089
		H167.87z M168.768,10.221h0.901c0.406,0,0.768-0.038,1.083-0.113c0.197-0.046,0.365-0.115,0.505-0.206
		c0.184-0.116,0.351-0.271,0.501-0.462c0.197-0.254,0.354-0.543,0.472-0.868c0.118-0.325,0.177-0.694,0.177-1.109
		c0-0.461-0.08-0.814-0.241-1.063c-0.161-0.247-0.365-0.411-0.614-0.491c-0.184-0.06-0.47-0.089-0.858-0.089h-1.006L168.768,10.221z
		"/>
	<path fill="#00FF00" d="M174.839,5.17h0.761l-0.73,3.5c-0.06,0.291-0.089,0.506-0.089,0.646c0,0.306,0.12,0.552,0.361,0.738
		c0.241,0.187,0.543,0.279,0.909,0.279c0.29,0,0.56-0.066,0.81-0.2c0.25-0.133,0.447-0.329,0.592-0.588
		c0.145-0.26,0.276-0.673,0.393-1.239l0.656-3.136h0.762l-0.695,3.341c-0.119,0.57-0.276,1.021-0.47,1.354
		c-0.194,0.332-0.463,0.6-0.808,0.8c-0.344,0.201-0.745,0.301-1.2,0.301c-0.43,0-0.802-0.071-1.117-0.213
		c-0.315-0.143-0.551-0.34-0.707-0.591c-0.157-0.251-0.235-0.536-0.235-0.854c0-0.199,0.053-0.543,0.159-1.029L174.839,5.17z"/>
	<path fill="#00FF00" d="M179.326,10.866l1.189-5.695h0.761l-1.053,5.051h2.957l-0.136,0.645H179.326z"/>
	<path fill="#00FF00" d="M184.924,10.866l0.458-2.202L183.63,5.17h0.816l0.839,1.663c0.184,0.362,0.362,0.751,0.536,1.165
		c0.191-0.352,0.453-0.736,0.785-1.153l1.336-1.675h0.909l-2.719,3.551l-0.447,2.145H184.924z"/>
</g>
<g>
	<path fill="#00FF00" d="M377.568,12.116l1.188-5.695h0.762l-1.053,5.051h2.957l-0.137,0.645H377.568z"/>
	<path fill="#00FF00" d="M381.516,12.116l3.228-5.695h0.898l0.939,5.695h-0.738l-0.275-1.64h-2.304l-0.913,1.64H381.516z
		 M383.59,9.89h1.884l-0.221-1.43c-0.086-0.567-0.139-1.04-0.16-1.418c-0.129,0.326-0.318,0.713-0.566,1.161L383.59,9.89z"/>
	<path fill="#00FF00" d="M387.327,12.116l1.192-5.695h1.763c0.322,0,0.561,0.014,0.715,0.039c0.254,0.044,0.469,0.121,0.644,0.231
		s0.31,0.26,0.405,0.45c0.097,0.19,0.145,0.401,0.145,0.632c0,0.313-0.086,0.589-0.258,0.827c-0.173,0.238-0.437,0.42-0.791,0.544
		c0.309,0.101,0.539,0.253,0.691,0.456c0.152,0.204,0.229,0.441,0.229,0.713c0,0.313-0.09,0.614-0.27,0.901s-0.418,0.51-0.715,0.666
		c-0.297,0.157-0.627,0.235-0.992,0.235H387.327z M388.224,11.471h1.298c0.345,0,0.576-0.012,0.695-0.035
		c0.241-0.042,0.437-0.112,0.587-0.212s0.268-0.231,0.354-0.395s0.128-0.334,0.128-0.513c0-0.267-0.083-0.469-0.251-0.607
		c-0.166-0.139-0.484-0.208-0.953-0.208h-1.445L388.224,11.471z M388.772,8.853h1.153c0.552,0,0.948-0.089,1.19-0.265
		s0.363-0.433,0.363-0.77c0-0.16-0.037-0.299-0.113-0.415c-0.074-0.117-0.175-0.201-0.301-0.255
		c-0.125-0.053-0.361-0.079-0.709-0.079h-1.212L388.772,8.853z"/>
	<path fill="#00FF00" d="M393.015,9.731c0-1.016,0.293-1.837,0.879-2.465c0.587-0.629,1.299-0.942,2.135-0.942
		c0.71,0,1.288,0.231,1.734,0.693c0.447,0.462,0.67,1.082,0.67,1.858c0,0.555-0.112,1.068-0.338,1.543
		c-0.168,0.354-0.381,0.661-0.637,0.918c-0.256,0.258-0.531,0.457-0.823,0.597c-0.389,0.187-0.8,0.279-1.235,0.279
		c-0.456,0-0.871-0.108-1.245-0.326c-0.374-0.217-0.657-0.521-0.851-0.911C393.11,10.585,393.015,10.17,393.015,9.731z
		 M393.764,9.769c0,0.334,0.069,0.642,0.208,0.921c0.139,0.28,0.346,0.499,0.619,0.656c0.275,0.158,0.563,0.237,0.867,0.237
		c0.292,0,0.57-0.069,0.834-0.208c0.265-0.139,0.501-0.331,0.709-0.579c0.209-0.247,0.373-0.551,0.494-0.912
		c0.12-0.361,0.181-0.717,0.181-1.066c0-0.567-0.159-1.02-0.476-1.356c-0.318-0.336-0.709-0.505-1.176-0.505
		c-0.596,0-1.121,0.255-1.577,0.764S393.764,8.913,393.764,9.769z"/>
	<path fill="#00FF00" d="M398.849,12.116l1.193-5.695h2.389c0.471,0,0.828,0.04,1.072,0.119c0.243,0.079,0.435,0.227,0.572,0.444
		c0.139,0.218,0.209,0.492,0.209,0.823c0,0.464-0.152,0.849-0.455,1.154s-0.793,0.504-1.469,0.595
		c0.207,0.152,0.364,0.303,0.471,0.45c0.238,0.334,0.43,0.68,0.574,1.037l0.436,1.072h-0.851l-0.408-1.061
		c-0.147-0.383-0.315-0.715-0.505-0.994c-0.129-0.194-0.262-0.322-0.396-0.383s-0.354-0.092-0.656-0.092h-0.886l-0.528,2.529
		H398.849z M400.267,8.969h1.053c0.487,0,0.805-0.007,0.952-0.02c0.288-0.028,0.522-0.093,0.707-0.194
		c0.184-0.101,0.326-0.237,0.427-0.408c0.102-0.171,0.152-0.354,0.152-0.551c0-0.166-0.038-0.311-0.113-0.434
		c-0.074-0.123-0.174-0.206-0.295-0.251c-0.121-0.044-0.329-0.065-0.621-0.065h-1.857L400.267,8.969z"/>
	<path fill="#00FF00" d="M404.062,12.116l3.229-5.695h0.897l0.94,5.695h-0.738l-0.275-1.64h-2.305l-0.912,1.64H404.062z
		 M406.136,9.89h1.885l-0.222-1.43c-0.085-0.567-0.138-1.04-0.159-1.418c-0.129,0.326-0.318,0.713-0.566,1.161L406.136,9.89z"/>
	<path fill="#00FF00" d="M410.743,12.116l1.054-5.046h-1.868l0.135-0.649h4.483l-0.136,0.649h-1.854l-1.053,5.046H410.743z"/>
	<path fill="#00FF00" d="M414.38,9.731c0-1.016,0.293-1.837,0.88-2.465c0.587-0.629,1.298-0.942,2.134-0.942
		c0.711,0,1.289,0.231,1.735,0.693s0.67,1.082,0.67,1.858c0,0.555-0.112,1.068-0.338,1.543c-0.169,0.354-0.381,0.661-0.638,0.918
		c-0.256,0.258-0.53,0.457-0.822,0.597c-0.389,0.187-0.801,0.279-1.236,0.279c-0.455,0-0.871-0.108-1.244-0.326
		c-0.375-0.217-0.658-0.521-0.852-0.911C414.476,10.585,414.38,10.17,414.38,9.731z M415.13,9.769c0,0.334,0.068,0.642,0.207,0.921
		c0.139,0.28,0.346,0.499,0.62,0.656c0.274,0.158,0.563,0.237,0.866,0.237c0.293,0,0.57-0.069,0.835-0.208s0.501-0.331,0.709-0.579
		c0.208-0.247,0.373-0.551,0.493-0.912c0.121-0.361,0.182-0.717,0.182-1.066c0-0.567-0.159-1.02-0.477-1.356
		c-0.317-0.336-0.709-0.505-1.175-0.505c-0.596,0-1.122,0.255-1.577,0.764C415.357,8.229,415.13,8.913,415.13,9.769z"/>
	<path fill="#00FF00" d="M420.215,12.116l1.192-5.695h2.389c0.472,0,0.829,0.04,1.072,0.119c0.244,0.079,0.436,0.227,0.573,0.444
		c0.139,0.218,0.208,0.492,0.208,0.823c0,0.464-0.151,0.849-0.455,1.154c-0.303,0.306-0.792,0.504-1.468,0.595
		c0.207,0.152,0.364,0.303,0.47,0.45c0.238,0.334,0.43,0.68,0.575,1.037l0.435,1.072h-0.85l-0.408-1.061
		c-0.148-0.383-0.316-0.715-0.506-0.994c-0.129-0.194-0.262-0.322-0.396-0.383c-0.135-0.061-0.354-0.092-0.657-0.092h-0.885
		l-0.529,2.529H420.215z M421.633,8.969h1.053c0.487,0,0.804-0.007,0.952-0.02c0.287-0.028,0.522-0.093,0.707-0.194
		c0.184-0.101,0.326-0.237,0.427-0.408s0.151-0.354,0.151-0.551c0-0.166-0.037-0.311-0.112-0.434s-0.174-0.206-0.296-0.251
		c-0.121-0.044-0.328-0.065-0.621-0.065h-1.857L421.633,8.969z M424.655,5.002l-1.029,1.068h-0.777l-0.479-1.068h0.614l0.296,0.691
		l0.645-0.691H424.655z"/>
</g>
<g>
	<path fill="#00FF00" d="M468.72,5.17h0.762l-0.73,3.5c-0.06,0.291-0.09,0.506-0.09,0.646c0,0.306,0.121,0.552,0.361,0.738
		c0.241,0.187,0.544,0.279,0.909,0.279c0.29,0,0.56-0.066,0.81-0.2c0.25-0.133,0.447-0.329,0.593-0.588
		c0.146-0.26,0.276-0.673,0.393-1.239l0.656-3.136h0.762l-0.695,3.341c-0.119,0.57-0.276,1.021-0.47,1.354
		c-0.195,0.332-0.464,0.6-0.809,0.8c-0.344,0.201-0.744,0.301-1.2,0.301c-0.431,0-0.802-0.071-1.116-0.213
		c-0.315-0.143-0.551-0.34-0.707-0.591c-0.157-0.251-0.236-0.536-0.236-0.854c0-0.199,0.054-0.543,0.16-1.029L468.72,5.17z"/>
	<path fill="#00FF00" d="M473.229,10.866l1.193-5.695h2.377c0.412,0,0.721,0.048,0.927,0.143c0.206,0.094,0.376,0.256,0.511,0.485
		c0.135,0.229,0.202,0.486,0.202,0.771c0,0.236-0.048,0.476-0.144,0.719c-0.096,0.244-0.217,0.444-0.363,0.603
		s-0.295,0.277-0.445,0.357s-0.311,0.14-0.481,0.179c-0.365,0.085-0.733,0.128-1.106,0.128h-1.426l-0.482,2.312H473.229z
		 M474.608,7.91h1.256c0.486,0,0.844-0.053,1.072-0.157c0.228-0.105,0.41-0.265,0.547-0.48c0.138-0.215,0.206-0.442,0.206-0.684
		c0-0.187-0.036-0.338-0.108-0.456s-0.175-0.205-0.307-0.261c-0.133-0.056-0.387-0.083-0.762-0.083h-1.461L474.608,7.91z"/>
	<path fill="#00FF00" d="M481.454,8.621l0.135-0.646h2.494l-0.484,2.319c-0.314,0.197-0.672,0.357-1.072,0.482
		c-0.402,0.124-0.797,0.186-1.186,0.186c-0.828,0-1.447-0.249-1.857-0.749c-0.344-0.423-0.516-0.965-0.516-1.628
		c0-0.684,0.15-1.306,0.452-1.866c0.302-0.562,0.683-0.976,1.142-1.243c0.46-0.269,0.971-0.402,1.533-0.402
		c0.404,0,0.767,0.073,1.088,0.22c0.32,0.146,0.566,0.342,0.738,0.586c0.17,0.245,0.293,0.564,0.369,0.958l-0.746,0.081
		c-0.08-0.391-0.247-0.69-0.5-0.898c-0.252-0.209-0.576-0.313-0.973-0.313c-0.412,0-0.797,0.112-1.154,0.336
		c-0.357,0.225-0.643,0.563-0.855,1.015c-0.215,0.451-0.321,0.965-0.321,1.54c0,0.572,0.142,1.005,0.424,1.298
		c0.282,0.292,0.672,0.438,1.169,0.438c0.494,0,1.027-0.163,1.597-0.489l0.257-1.224H481.454z"/>
	<path fill="#00FF00" d="M484.756,10.866l1.192-5.695h2.389c0.472,0,0.829,0.04,1.072,0.119c0.244,0.079,0.436,0.227,0.573,0.444
		c0.139,0.218,0.208,0.492,0.208,0.823c0,0.464-0.151,0.849-0.455,1.154c-0.303,0.306-0.792,0.504-1.468,0.595
		c0.207,0.152,0.364,0.303,0.47,0.45c0.238,0.334,0.43,0.68,0.575,1.037l0.435,1.072h-0.85l-0.408-1.061
		c-0.148-0.383-0.316-0.715-0.506-0.994c-0.129-0.194-0.262-0.322-0.396-0.383c-0.135-0.061-0.354-0.092-0.657-0.092h-0.885
		l-0.529,2.529H484.756z M486.174,7.719h1.053c0.487,0,0.804-0.007,0.952-0.02c0.287-0.028,0.522-0.093,0.707-0.194
		c0.184-0.101,0.326-0.237,0.427-0.408s0.151-0.354,0.151-0.551c0-0.166-0.037-0.311-0.112-0.434s-0.174-0.206-0.296-0.251
		c-0.121-0.044-0.328-0.065-0.621-0.065h-1.857L486.174,7.719z"/>
	<path fill="#00FF00" d="M489.97,10.866l3.228-5.695h0.897l0.939,5.695h-0.737l-0.276-1.64h-2.303l-0.914,1.64H489.97z
		 M492.044,8.64h1.884l-0.222-1.43c-0.086-0.567-0.139-1.04-0.159-1.418c-0.13,0.326-0.318,0.713-0.567,1.161L492.044,8.64z"/>
	<path fill="#00FF00" d="M495.788,10.866l1.188-5.695h1.718c0.411,0,0.727,0.03,0.943,0.09c0.311,0.08,0.576,0.224,0.797,0.429
		c0.22,0.206,0.385,0.463,0.497,0.771c0.111,0.309,0.167,0.654,0.167,1.037c0,0.459-0.069,0.876-0.208,1.253
		s-0.319,0.708-0.544,0.994s-0.459,0.511-0.703,0.673c-0.244,0.161-0.534,0.281-0.868,0.359c-0.254,0.06-0.565,0.089-0.937,0.089
		H495.788z M496.686,10.221h0.901c0.406,0,0.768-0.038,1.084-0.113c0.196-0.046,0.365-0.115,0.504-0.206
		c0.185-0.116,0.352-0.271,0.502-0.462c0.197-0.254,0.354-0.543,0.472-0.868s0.177-0.694,0.177-1.109c0-0.461-0.08-0.814-0.24-1.063
		c-0.161-0.247-0.365-0.411-0.614-0.491c-0.185-0.06-0.47-0.089-0.858-0.089h-1.006L496.686,10.221z"/>
	<path fill="#00FF00" d="M503.402,10.866l0.458-2.202l-1.752-3.493h0.816l0.839,1.663c0.184,0.362,0.362,0.751,0.536,1.165
		c0.191-0.352,0.453-0.736,0.785-1.153l1.336-1.675h0.908l-2.719,3.551l-0.447,2.145H503.402z"/>
</g>
<g>
	<path fill="#00FF00" d="M282.656,9.462l1.259-0.122c0.076,0.423,0.229,0.732,0.461,0.931c0.232,0.198,0.544,0.298,0.938,0.298
		c0.417,0,0.73-0.089,0.942-0.265c0.211-0.177,0.317-0.383,0.317-0.618c0-0.152-0.044-0.281-0.133-0.387
		c-0.089-0.106-0.244-0.199-0.465-0.278c-0.152-0.052-0.497-0.146-1.036-0.279c-0.693-0.172-1.18-0.383-1.459-0.634
		c-0.394-0.353-0.59-0.782-0.59-1.289c0-0.326,0.092-0.632,0.277-0.916s0.452-0.5,0.8-0.648s0.769-0.223,1.261-0.223
		c0.804,0,1.41,0.176,1.816,0.528s0.62,0.823,0.64,1.411l-1.293,0.058c-0.056-0.329-0.174-0.566-0.356-0.711
		c-0.182-0.144-0.455-0.216-0.819-0.216c-0.375,0-0.67,0.077-0.883,0.231c-0.137,0.1-0.205,0.231-0.205,0.397
		c0,0.152,0.064,0.281,0.192,0.39c0.164,0.137,0.56,0.279,1.189,0.428s1.095,0.303,1.396,0.461c0.301,0.159,0.537,0.376,0.708,0.651
		c0.17,0.275,0.255,0.615,0.255,1.021c0,0.367-0.102,0.711-0.306,1.031c-0.204,0.32-0.493,0.559-0.866,0.715
		c-0.373,0.156-0.837,0.233-1.394,0.233c-0.81,0-1.432-0.187-1.866-0.562C283,10.725,282.741,10.179,282.656,9.462z"/>
	<path fill="#00FF00" d="M288.971,11.547V5.14h1.294v2.846l2.613-2.846h1.739l-2.412,2.496l2.543,3.911h-1.674l-1.761-3.007
		l-1.049,1.071v1.936H288.971z"/>
	<path fill="#00FF00" d="M295.453,11.547V5.193h1.294v5.275h3.216v1.079H295.453z"/>
	<path fill="#00FF00" d="M306.662,11.547h-1.407l-0.56-1.455h-2.562l-0.528,1.455h-1.372l2.496-6.407h1.367L306.662,11.547z
		 M304.28,9.012l-0.883-2.377l-0.865,2.377H304.28z"/>
	<path fill="#00FF00" d="M307.345,5.14h2.363c0.533,0,0.939,0.041,1.22,0.123c0.376,0.11,0.698,0.308,0.966,0.59
		s0.473,0.629,0.611,1.038c0.141,0.409,0.211,0.914,0.211,1.514c0,0.527-0.066,0.982-0.197,1.364
		c-0.16,0.466-0.389,0.843-0.686,1.132c-0.225,0.218-0.527,0.389-0.91,0.511c-0.285,0.091-0.666,0.136-1.145,0.136h-2.434V5.14z
		 M308.638,6.224v4.244h0.966c0.361,0,0.622-0.021,0.782-0.062c0.21-0.053,0.384-0.142,0.522-0.267
		c0.138-0.125,0.251-0.331,0.339-0.618c0.087-0.287,0.131-0.679,0.131-1.174s-0.044-0.875-0.131-1.141
		c-0.088-0.265-0.21-0.472-0.367-0.62c-0.158-0.148-0.357-0.249-0.6-0.302c-0.18-0.041-0.534-0.062-1.062-0.062H308.638z"/>
</g>
</svg>
