<?xml version="1.0" encoding="utf-8"?>
<!-- Generator: Adobe Illustrator 16.0.0, SVG Export Plug-In . SVG Version: 6.00 Build 0)  -->
<svg version="1.2" baseProfile="tiny" id="Vrstva_1"
	 xmlns="http://www.w3.org/2000/svg" xmlns:xlink="http://www.w3.org/1999/xlink" x="0px" y="0px" width="29.347px"
	 height="29.347px" viewBox="0 0 29.347 29.347" xml:space="preserve">
<g>
	<path fill="#CFCECE" d="M28.847,23.177c0,3.118-2.551,5.669-5.669,5.669H6.169c-3.118,0-5.669-2.551-5.669-5.669V6.169
		C0.5,3.051,3.051,0.5,6.169,0.5h17.008c3.118,0,5.669,2.551,5.669,5.669V23.177z"/>
	<path fill="none" stroke="#000000" stroke-width="3" stroke-miterlimit="10" d="M28.847,23.177c0,3.118-2.551,5.669-5.669,5.669
		H6.169c-3.118,0-5.669-2.551-5.669-5.669V6.169C0.5,3.051,3.051,0.5,6.169,0.5h17.008c3.118,0,5.669,2.551,5.669,5.669V23.177z"/>
</g>
<g>
	<path stroke="#000000" stroke-width="2" stroke-miterlimit="10" d="M10.588,16.678l-1.26,3.817H7.707L11.83,8.359h1.891
		l4.141,12.136h-1.674l-1.296-3.817H10.588z M14.567,15.453l-1.188-3.493c-0.271-0.792-0.45-1.512-0.63-2.214h-0.036
		c-0.18,0.72-0.378,1.458-0.612,2.196l-1.188,3.511H14.567z"/>
	<path stroke="#000000" stroke-width="2" stroke-miterlimit="10" d="M19.534,7.711h1.584v12.784h-1.584V7.711z"/>
</g>
</svg>
