<?xml version="1.0" encoding="utf-8"?>
<!-- Generator: Adobe Illustrator 16.0.0, SVG Export Plug-In . SVG Version: 6.00 Build 0)  -->
<svg version="1.2" baseProfile="tiny" id="Vrstva_1"
	 xmlns="http://www.w3.org/2000/svg" xmlns:xlink="http://www.w3.org/1999/xlink" x="0px" y="0px" width="29.347px"
	 height="29.347px" viewBox="0 0 29.347 29.347" xml:space="preserve">
<g>
	<path fill="#7E5D25" d="M28.847,23.177c0,3.118-2.551,5.669-5.669,5.669H6.169c-3.118,0-5.669-2.551-5.669-5.669V6.169
		C0.5,3.051,3.051,0.5,6.169,0.5h17.008c3.118,0,5.669,2.551,5.669,5.669V23.177z"/>
	<path fill="none" stroke="#000000" stroke-width="3" stroke-miterlimit="10" d="M28.847,23.177c0,3.118-2.551,5.669-5.669,5.669
		H6.169c-3.118,0-5.669-2.551-5.669-5.669V6.169C0.5,3.051,3.051,0.5,6.169,0.5h17.008c3.118,0,5.669,2.551,5.669,5.669V23.177z"/>
</g>
<g>
	<path stroke="#000000" stroke-width="2" stroke-miterlimit="10" d="M19.022,20.099c-0.576,0.288-1.729,0.576-3.205,0.576
		c-3.421,0-5.996-2.161-5.996-6.14c0-3.799,2.575-6.374,6.338-6.374c1.512,0,2.466,0.324,2.881,0.54l-0.378,1.278
		c-0.594-0.288-1.44-0.504-2.449-0.504c-2.845,0-4.735,1.818-4.735,5.005c0,2.971,1.71,4.879,4.664,4.879
		c0.954,0,1.926-0.198,2.557-0.504L19.022,20.099z"/>
</g>
</svg>
