<?xml version="1.0" encoding="utf-8"?>
<!-- Generator: Adobe Illustrator 16.0.0, SVG Export Plug-In . SVG Version: 6.00 Build 0)  -->
<svg version="1.2" baseProfile="tiny" id="Vrstva_1"
	 xmlns="http://www.w3.org/2000/svg" xmlns:xlink="http://www.w3.org/1999/xlink" x="0px" y="0px" width="29.347px"
	 height="29.347px" viewBox="0 0 29.347 29.347" xml:space="preserve">
<g>
	<path fill="#3950A2" d="M28.847,23.177c0,3.118-2.551,5.669-5.669,5.669H6.169c-3.118,0-5.669-2.551-5.669-5.669V6.169
		C0.5,3.051,3.051,0.5,6.169,0.5h17.008c3.118,0,5.669,2.551,5.669,5.669V23.177z"/>
	<path fill="none" stroke="#000000" stroke-width="3" stroke-miterlimit="10" d="M28.847,23.177c0,3.118-2.551,5.669-5.669,5.669
		H6.169c-3.118,0-5.669-2.551-5.669-5.669V6.169C0.5,3.051,3.051,0.5,6.169,0.5h17.008c3.118,0,5.669,2.551,5.669,5.669V23.177z"/>
</g>
<g>
	<path stroke="#000000" stroke-width="2" stroke-miterlimit="10" d="M7.792,8.521c0.955-0.144,2.089-0.252,3.331-0.252
		c2.251,0,3.854,0.522,4.916,1.512c1.081,0.99,1.71,2.395,1.71,4.357c0,1.98-0.612,3.601-1.746,4.717
		c-1.135,1.134-3.007,1.747-5.366,1.747c-1.117,0-2.053-0.054-2.845-0.144V8.521z M9.358,19.252c0.396,0.072,0.972,0.09,1.584,0.09
		c3.349,0,5.167-1.873,5.167-5.149c0.018-2.863-1.603-4.682-4.916-4.682c-0.811,0-1.422,0.072-1.836,0.162V19.252z"/>
	<path stroke="#000000" stroke-miterlimit="10" d="M21.49,9.331c0.018,0.541-0.378,0.973-1.008,0.973
		c-0.559,0-0.955-0.432-0.955-0.973c0-0.558,0.414-0.99,0.99-0.99C21.112,8.341,21.49,8.773,21.49,9.331z M19.726,20.495V11.78
		h1.584v8.714H19.726z"/>
</g>
</svg>
