<?xml version="1.0" encoding="utf-8"?>
<!-- Generator: Adobe Illustrator 16.0.0, SVG Export Plug-In . SVG Version: 6.00 Build 0)  -->
<svg version="1.2" baseProfile="tiny" id="Vrstva_1"
	 xmlns="http://www.w3.org/2000/svg" xmlns:xlink="http://www.w3.org/1999/xlink" x="0px" y="0px" width="29.347px"
	 height="29.347px" viewBox="0 0 29.347 29.347" xml:space="preserve">
<g>
	<path fill="#81C341" d="M28.847,23.177c0,3.118-2.551,5.669-5.669,5.669H6.169c-3.118,0-5.669-2.551-5.669-5.669V6.169
		C0.5,3.051,3.051,0.5,6.169,0.5h17.008c3.118,0,5.669,2.551,5.669,5.669V23.177z"/>
	<path fill="none" stroke="#000000" stroke-width="3" stroke-miterlimit="10" d="M28.847,23.177c0,3.118-2.551,5.669-5.669,5.669
		H6.169c-3.118,0-5.669-2.551-5.669-5.669V6.169C0.5,3.051,3.051,0.5,6.169,0.5h17.008c3.118,0,5.669,2.551,5.669,5.669V23.177z"/>
</g>
<g>
	<path stroke="#000000" stroke-width="2" stroke-miterlimit="10" d="M7.792,8.359h6.536v1.314H9.359v4.033h4.591v1.296H9.359v5.492
		H7.792V8.359z"/>
	<path stroke="#000000" stroke-width="2" stroke-miterlimit="10" d="M22.842,14.805h-4.717v4.375h5.257v1.314h-6.824V8.359h6.554
		v1.314h-4.987v3.835h4.717V14.805z"/>
</g>
</svg>
