<?xml version="1.0" encoding="utf-8"?>
<!-- Generator: Adobe Illustrator 16.0.0, SVG Export Plug-In . SVG Version: 6.00 Build 0)  -->
<svg version="1.2" baseProfile="tiny" id="_x30_" xmlns="http://www.w3.org/2000/svg" xmlns:xlink="http://www.w3.org/1999/xlink"
	 x="0px" y="0px" width="597.098px" height="289.406px" viewBox="0 0 597.098 289.406" xml:space="preserve">
<g id="LWPOLYLINE_6_">
	
		<polyline fill="#3D3D3D" stroke="#00EDED" stroke-width="2" stroke-linecap="round" stroke-linejoin="round" stroke-miterlimit="10" points="
		230.924,1 34.812,1 1,20.521 1,254.593 34.812,288.406 562.285,288.406 596.098,254.593 596.098,36.139 535.235,1 366.174,1 
		352.648,14.525 244.449,14.525 230.924,1 214.018,1 	"/>
</g>
<g id="LWPOLYLINE">
	
		<polygon fill="none" stroke="#00EDED" stroke-width="2" stroke-linecap="round" stroke-linejoin="round" stroke-miterlimit="10" points="
		126.105,4.381 115.962,14.525 28.05,14.525 38.193,4.381 	"/>
</g>
<g id="LWPOLYLINE_1_">
	
		<polygon fill="none" stroke="#00EDED" stroke-width="2" stroke-linecap="round" stroke-linejoin="round" stroke-miterlimit="10" points="
		224.162,4.381 214.018,14.525 122.725,14.525 132.868,4.381 	"/>
</g>
<g id="LWPOLYLINE_2_">
	
		<polygon fill="none" stroke="#00EDED" stroke-width="2" stroke-linecap="round" stroke-linejoin="round" stroke-miterlimit="10" points="
		447.323,4.381 437.18,14.525 359.411,14.525 369.555,4.381 	"/>
</g>
<g id="LWPOLYLINE_3_">
	
		<polygon fill="none" stroke="#00EDED" stroke-width="2" stroke-linecap="round" stroke-linejoin="round" stroke-miterlimit="10" points="
		535.235,4.381 525.092,14.525 443.942,14.525 454.086,4.381 	"/>
</g>
<g id="LINE">
	
		<line fill="none" stroke="#00EDED" stroke-width="2" stroke-linecap="round" stroke-linejoin="round" stroke-miterlimit="10" x1="362.792" y1="4.381" x2="234.305" y2="4.381"/>
</g>
<g id="LWPOLYLINE_4_">
	
		<polygon fill="none" stroke="#00EDED" stroke-width="2" stroke-linecap="round" stroke-linejoin="round" stroke-miterlimit="10" points="
		348.362,5.577 356.815,5.577 350.258,12.134 341.805,12.134 	"/>
</g>
<g id="LINE_1_">
	
		<line fill="none" stroke="#00EDED" stroke-width="2" stroke-linecap="round" stroke-linejoin="round" stroke-miterlimit="10" x1="347.704" y1="7.25" x2="350.915" y2="10.461"/>
</g>
<g id="LINE_2_">
	
		<line fill="none" stroke="#00EDED" stroke-width="2" stroke-linecap="round" stroke-linejoin="round" stroke-miterlimit="10" x1="341.805" y1="12.134" x2="348.362" y2="5.577"/>
</g>
<g id="LINE_3_">
	
		<line fill="none" stroke="#00EDED" stroke-width="2" stroke-linecap="round" stroke-linejoin="round" stroke-miterlimit="10" x1="347.704" y1="10.461" x2="350.915" y2="7.25"/>
</g>
<g id="LWPOLYLINE_5_">
	
		<polyline fill="none" stroke="#00EDED" stroke-width="2" stroke-linecap="round" stroke-linejoin="round" stroke-miterlimit="10" points="
		281.643,288.406 308.692,261.355 308.692,161.609 288.405,141.321 288.405,41.575 315.455,14.525 	"/>
</g>
</svg>
