<?xml version="1.0" encoding="utf-8"?>
<!-- Generator: Adobe Illustrator 16.0.0, SVG Export Plug-In . SVG Version: 6.00 Build 0)  -->
<svg version="1.2" baseProfile="tiny" id="Vrstva_1"
	 xmlns="http://www.w3.org/2000/svg" xmlns:xlink="http://www.w3.org/1999/xlink" x="0px" y="0px" width="29.347px"
	 height="29.347px" viewBox="0 0 29.347 29.347" xml:space="preserve">
<g>
	<path fill="#4788C8" d="M28.847,23.177c0,3.118-2.551,5.669-5.669,5.669H6.169c-3.118,0-5.669-2.551-5.669-5.669V6.169
		C0.5,3.051,3.051,0.5,6.169,0.5h17.008c3.118,0,5.669,2.551,5.669,5.669V23.177z"/>
	<path fill="none" stroke="#000000" stroke-width="3" stroke-miterlimit="10" d="M28.847,23.177c0,3.118-2.551,5.669-5.669,5.669
		H6.169c-3.118,0-5.669-2.551-5.669-5.669V6.169C0.5,3.051,3.051,0.5,6.169,0.5h17.008c3.118,0,5.669,2.551,5.669,5.669V23.177z"/>
</g>
<g>
	<path stroke="#000000" stroke-width="2" stroke-miterlimit="10" d="M12.109,8.359v5.078h5.87V8.359h1.584v12.136h-1.584v-5.69
		h-5.87v5.69h-1.567V8.359H12.109z"/>
</g>
</svg>
