<?xml version="1.0" encoding="utf-8"?>
<!-- Generator: Adobe Illustrator 16.0.0, SVG Export Plug-In . SVG Version: 6.00 Build 0)  -->
<!DOCTYPE svg PUBLIC "-//W3C//DTD SVG 1.0//EN" "http://www.w3.org/TR/2001/REC-SVG-20010904/DTD/svg10.dtd">
<svg version="1.0" id="Vrstva_1" xmlns="http://www.w3.org/2000/svg" xmlns:xlink="http://www.w3.org/1999/xlink" x="0px" y="0px"
	 width="119.972px" height="119.972px" viewBox="0 0 119.972 119.972" enable-background="new 0 0 119.972 119.972"
	 xml:space="preserve">
<g id="CIRCLE">
	<path fill="none" stroke="#60C8D4" stroke-width="2" stroke-linecap="round" stroke-linejoin="round" stroke-miterlimit="10" d="
		M99.643,59.986c0-21.902-17.755-39.657-39.657-39.657c-21.901,0-39.657,17.755-39.657,39.657c0,21.902,17.756,39.658,39.657,39.658
		C81.888,99.644,99.643,81.888,99.643,59.986L99.643,59.986z"/>
</g>
<g id="LINE">
	
		<line fill="none" stroke="#60C8D4" stroke-width="4" stroke-linecap="round" stroke-linejoin="round" stroke-miterlimit="10" x1="59.985" y1="13.736" x2="59.985" y2="53.597"/>
</g>
<g id="LWPOLYLINE_4_">
	<path fill="none" stroke="#60C8D4" stroke-linecap="round" stroke-linejoin="round" stroke-miterlimit="10" d="M13.719,0.5h92.533
		c7.301,0,13.22,5.919,13.22,13.22v92.534c0,7.301-5.919,13.219-13.22,13.219H13.719c-7.301,0-13.219-5.918-13.219-13.219V13.72
		C0.5,6.419,6.418,0.5,13.719,0.5z"/>
</g>
</svg>
