<?xml version="1.0" encoding="utf-8"?>
<!-- Generator: Adobe Illustrator 16.0.0, SVG Export Plug-In . SVG Version: 6.00 Build 0)  -->
<!DOCTYPE svg PUBLIC "-//W3C//DTD SVG 1.0//EN" "http://www.w3.org/TR/2001/REC-SVG-20010904/DTD/svg10.dtd">
<svg version="1.0" id="Vrstva_1" xmlns="http://www.w3.org/2000/svg" xmlns:xlink="http://www.w3.org/1999/xlink" x="0px" y="0px"
	 width="119.682px" height="119.682px" viewBox="0 0 119.682 119.682" enable-background="new 0 0 119.682 119.682"
	 xml:space="preserve">
<g id="LINE_1_">
	
		<line fill="none" stroke="#60C8D4" stroke-width="2" stroke-linecap="round" stroke-linejoin="round" stroke-miterlimit="10" x1="20.183" y1="96.602" x2="81.73" y2="96.602"/>
</g>
<g id="LINE_2_">
	
		<line fill="none" stroke="#60C8D4" stroke-width="2" stroke-linecap="round" stroke-linejoin="round" stroke-miterlimit="10" x1="81.73" y1="96.602" x2="81.73" y2="35.054"/>
</g>
<g id="LINE_3_">
	
		<line fill="none" stroke="#60C8D4" stroke-width="2" stroke-linecap="round" stroke-linejoin="round" stroke-miterlimit="10" x1="81.73" y1="35.054" x2="20.183" y2="35.054"/>
</g>
<g id="LINE_4_">
	
		<line fill="none" stroke="#60C8D4" stroke-width="2" stroke-linecap="round" stroke-linejoin="round" stroke-miterlimit="10" x1="20.183" y1="35.054" x2="20.183" y2="96.602"/>
</g>
<g id="LINE_5_">
	
		<line fill="none" stroke="#60C8D4" stroke-width="2" stroke-linecap="round" stroke-linejoin="round" stroke-miterlimit="10" x1="20.183" y1="35.054" x2="37.95" y2="24.796"/>
</g>
<g id="LINE_6_">
	
		<line fill="none" stroke="#60C8D4" stroke-width="2" stroke-linecap="round" stroke-linejoin="round" stroke-miterlimit="10" x1="37.95" y1="24.796" x2="99.498" y2="24.796"/>
</g>
<g id="LINE_7_">
	
		<line fill="none" stroke="#60C8D4" stroke-width="2" stroke-linecap="round" stroke-linejoin="round" stroke-miterlimit="10" x1="99.498" y1="24.796" x2="81.73" y2="35.054"/>
</g>
<g id="LINE_8_">
	
		<line fill="none" stroke="#60C8D4" stroke-width="2" stroke-linecap="round" stroke-linejoin="round" stroke-miterlimit="10" x1="81.73" y1="96.602" x2="99.498" y2="86.344"/>
</g>
<g id="LINE_9_">
	
		<line fill="none" stroke="#60C8D4" stroke-width="2" stroke-linecap="round" stroke-linejoin="round" stroke-miterlimit="10" x1="99.498" y1="86.344" x2="99.498" y2="24.796"/>
</g>
<g id="LWPOLYLINE_6_">
	<path fill="none" stroke="#00EDED" stroke-linecap="round" stroke-linejoin="round" stroke-miterlimit="10" d="M13.573,0.354
		h92.534c7.301,0,13.219,5.919,13.219,13.22v92.534c0,7.301-5.918,13.219-13.219,13.219H13.573c-7.301,0-13.219-5.918-13.219-13.219
		V13.574C0.354,6.273,6.272,0.354,13.573,0.354z"/>
</g>
</svg>
