<?xml version="1.0" encoding="utf-8"?>
<!-- Generator: Adobe Illustrator 16.0.0, SVG Export Plug-In . SVG Version: 6.00 Build 0)  -->
<svg version="1.2" baseProfile="tiny" id="_x30_" xmlns="http://www.w3.org/2000/svg" xmlns:xlink="http://www.w3.org/1999/xlink"
	 x="0px" y="0px" width="595.167px" height="595.167px" viewBox="0 0 595.167 595.167" xml:space="preserve">
<g id="LWPOLYLINE_1_">
	<path fill="#FF8B00" d="M228.39,56.729L191.292,19.63c11.002-4.208,22.244-7.758,33.667-10.633l40.108,40.108
		C252.668,50.728,240.408,53.276,228.39,56.729z"/>
</g>
<g id="LWPOLYLINE_2_">
	<path fill="#FF8B00" d="M293.085,47.027L266.853,1.591c11.716-1.216,23.494-1.736,35.271-1.556l28.36,49.121
		C318.089,47.514,305.587,46.803,293.085,47.027z"/>
</g>
<g id="LWPOLYLINE_3_">
	<path fill="#FF8B00" d="M358.087,54.4L344.508,3.723c11.632,1.857,23.144,4.404,34.474,7.626l14.68,54.788
		C382.113,61.342,370.222,57.419,358.087,54.4z"/>
</g>
<g id="LWPOLYLINE_4_">
	<path fill="#FF8B00" d="M450.291,42.169V98.89c-9.914-7.62-20.385-14.487-31.324-20.543V25.881
		C429.721,30.686,440.181,36.125,450.291,42.169z"/>
</g>
<g id="LWPOLYLINE_5_">
	<path fill="#FF8B00" d="M471.573,117.233l13.579-50.678c9.145,7.424,17.841,15.385,26.042,23.841l-14.681,54.788
		C488.909,135.257,480.572,125.915,471.573,117.233z"/>
</g>
<g id="LWPOLYLINE_6_">
	<path fill="#FF8B00" d="M512.323,168.41l26.232-45.436c6.912,9.538,13.251,19.479,18.984,29.768l-28.36,49.122
		C524.403,190.307,518.768,179.125,512.323,168.41z"/>
</g>
<g id="LWPOLYLINE_7_">
	<path fill="#FF8B00" d="M538.438,228.39l37.099-37.099c4.207,11.002,7.758,22.244,10.633,33.667l-40.107,40.108
		C544.439,252.668,541.891,240.408,538.438,228.39z"/>
</g>
<g id="LWPOLYLINE_8_">
	<path fill="#FF8B00" d="M548.14,293.085l45.436-26.232c1.217,11.716,1.736,23.494,1.557,35.271l-49.121,28.36
		C547.653,318.089,548.365,305.587,548.14,293.085z"/>
</g>
<g id="LWPOLYLINE_9_">
	<path fill="#FF8B00" d="M540.766,358.087l50.678-13.579c-1.857,11.632-4.403,23.144-7.625,34.474l-54.788,14.68
		C533.825,382.113,537.748,370.222,540.766,358.087z"/>
</g>
<g id="LWPOLYLINE_10_">
	<path fill="#FF8B00" d="M516.821,418.966h52.465c-4.805,10.755-10.243,21.215-16.288,31.324h-56.721
		C503.897,440.376,510.764,429.906,516.821,418.966z"/>
</g>
<g id="LWPOLYLINE_11_">
	<path fill="#FF8B00" d="M477.934,471.573l50.678,13.579c-7.425,9.145-15.386,17.841-23.841,26.042l-54.788-14.681
		C459.91,488.909,469.252,480.572,477.934,471.573z"/>
</g>
<g id="LWPOLYLINE_12_">
	<path fill="#FF8B00" d="M426.757,512.323l45.436,26.232c-9.538,6.912-19.479,13.251-29.768,18.984l-49.122-28.36
		C404.86,524.403,416.042,518.768,426.757,512.323z"/>
</g>
<g id="LWPOLYLINE_13_">
	<path fill="#FF8B00" d="M366.777,538.438l37.099,37.099c-11.002,4.207-22.244,7.758-33.667,10.633l-40.107-40.107
		C342.5,544.439,354.759,541.891,366.777,538.438z"/>
</g>
<g id="LWPOLYLINE_14_">
	<path fill="#FF8B00" d="M302.082,548.14l26.232,45.437c-11.716,1.216-23.494,1.735-35.272,1.556l-28.36-49.121
		C277.078,547.653,289.579,548.365,302.082,548.14z"/>
</g>
<g id="LWPOLYLINE_15_">
	<path fill="#FF8B00" d="M237.08,540.766c-12.134-3.019-24.026-6.941-35.574-11.735l14.68,54.788
		c11.33,3.222,22.841,5.768,34.473,7.625L237.08,540.766z"/>
</g>
<g id="LWPOLYLINE_16_">
	<path fill="#FF8B00" d="M176.201,516.821v52.465c-10.755-4.805-21.215-10.243-31.325-16.288v-56.721
		C154.791,503.897,165.261,510.764,176.201,516.821z"/>
</g>
<g id="LWPOLYLINE_17_">
	<path fill="#FF8B00" d="M123.594,477.934l-13.579,50.678c-9.145-7.425-17.841-15.386-26.042-23.841l14.681-54.788
		C106.258,459.91,114.595,469.252,123.594,477.934z"/>
</g>
<g id="LWPOLYLINE_18_">
	<path fill="#FF8B00" d="M82.844,426.757l-26.232,45.436c-6.912-9.538-13.251-19.479-18.984-29.768l28.36-49.122
		C70.764,404.86,76.399,416.042,82.844,426.757z"/>
</g>
<g id="LWPOLYLINE_19_">
	<path fill="#FF8B00" d="M56.729,366.777L19.63,403.875c-4.208-11.002-7.758-22.244-10.632-33.667l40.107-40.107
		C50.728,342.5,53.276,354.759,56.729,366.777z"/>
</g>
<g id="LWPOLYLINE_20_">
	<path fill="#FF8B00" d="M47.027,302.082L1.591,328.314c-1.216-11.716-1.736-23.494-1.556-35.272l49.121-28.36
		C47.514,277.078,46.803,289.579,47.027,302.082z"/>
</g>
<g id="LWPOLYLINE_21_">
	<path fill="#FF8B00" d="M54.4,237.08L3.723,250.659c1.857-11.632,4.404-23.143,7.626-34.473l54.788-14.68
		C61.342,213.054,57.419,224.945,54.4,237.08z"/>
</g>
<g id="LWPOLYLINE_22_">
	<path fill="#FF8B00" d="M78.346,176.201H25.881c4.805-10.755,10.244-21.215,16.288-31.325H98.89
		C91.27,154.791,84.403,165.261,78.346,176.201z"/>
</g>
<g id="LWPOLYLINE_23_">
	<path fill="#FF8B00" d="M117.233,123.594l-50.678-13.579c7.424-9.145,15.385-17.841,23.841-26.042l54.788,14.681
		C135.257,106.258,125.915,114.595,117.233,123.594z"/>
</g>
<g id="LWPOLYLINE_24_">
	<path fill="#FF8B00" d="M152.742,37.628l49.122,28.36c-11.556,4.776-22.738,10.411-33.454,16.856l-45.436-26.232
		C132.512,49.7,142.452,43.361,152.742,37.628z"/>
</g>
</svg>
