<?xml version="1.0" encoding="utf-8"?>
<!-- Generator: Adobe Illustrator 16.0.0, SVG Export Plug-In . SVG Version: 6.00 Build 0)  -->
<svg version="1.2" baseProfile="tiny" id="_x30_" xmlns="http://www.w3.org/2000/svg" xmlns:xlink="http://www.w3.org/1999/xlink"
	 x="0px" y="0px" width="595.875px" height="595.875px" viewBox="0 0 595.875 595.875" xml:space="preserve">
<g id="LWPOLYLINE">
	<path fill="#008400" d="M367.131,57.083l37.099-37.099c-11.002-4.208-22.244-7.758-33.667-10.633L330.456,49.46
		C342.854,51.083,355.114,53.631,367.131,57.083z"/>
</g>
<g id="LWPOLYLINE_1_">
	<path fill="#008400" d="M302.436,47.381l26.232-45.436c-11.716-1.216-23.494-1.736-35.272-1.556l-28.36,49.121
		C277.432,47.869,289.934,47.157,302.436,47.381z"/>
</g>
<g id="LWPOLYLINE_2_">
	<path fill="#008400" d="M237.434,54.755l13.579-50.678c-11.632,1.857-23.143,4.404-34.473,7.626l-14.68,54.788
		C213.408,61.697,225.3,57.774,237.434,54.755z"/>
</g>
<g id="LWPOLYLINE_3_">
	<path fill="#008400" d="M145.23,42.523v56.721c9.915-7.62,20.385-14.487,31.325-20.543V26.235
		C165.8,31.04,155.34,36.479,145.23,42.523z"/>
</g>
<g id="LWPOLYLINE_4_">
	<path fill="#008400" d="M123.948,117.587L110.37,66.91c-9.145,7.424-17.841,15.385-26.042,23.841l14.681,54.788
		C106.613,135.612,114.949,126.269,123.948,117.587z"/>
</g>
<g id="LWPOLYLINE_5_">
	<path fill="#008400" d="M83.199,168.764l-26.232-45.436c-6.912,9.538-13.251,19.479-18.984,29.768l28.36,49.122
		C71.119,190.662,76.753,179.479,83.199,168.764z"/>
</g>
<g id="LWPOLYLINE_6_">
	<path fill="#008400" d="M57.083,228.745l-37.099-37.099c-4.208,11.002-7.758,22.244-10.632,33.667l40.107,40.108
		C51.083,253.022,53.631,240.763,57.083,228.745z"/>
</g>
<g id="LWPOLYLINE_7_">
	<path fill="#008400" d="M47.381,293.44L1.945,267.208c-1.216,11.716-1.736,23.494-1.556,35.271l49.121,28.36
		C47.869,318.444,47.157,305.942,47.381,293.44z"/>
</g>
<g id="LWPOLYLINE_8_">
	<path fill="#008400" d="M54.755,358.442L4.077,344.863c1.857,11.632,4.404,23.144,7.626,34.474l54.788,14.68
		C61.697,382.467,57.774,370.577,54.755,358.442z"/>
</g>
<g id="LWPOLYLINE_9_">
	<path fill="#008400" d="M78.701,419.321H26.235c4.805,10.755,10.244,21.215,16.288,31.324h56.721
		C91.625,440.731,84.757,430.26,78.701,419.321z"/>
</g>
<g id="LWPOLYLINE_10_">
	<path fill="#008400" d="M117.587,471.927L66.91,485.506c7.424,9.145,15.385,17.841,23.841,26.042l54.788-14.681
		C135.612,489.263,126.269,480.926,117.587,471.927z"/>
</g>
<g id="LWPOLYLINE_11_">
	<path fill="#008400" d="M168.764,512.677l-45.436,26.232c9.538,6.912,19.479,13.251,29.768,18.984l49.122-28.36
		C190.662,524.757,179.479,519.123,168.764,512.677z"/>
</g>
<g id="LWPOLYLINE_12_">
	<path fill="#008400" d="M228.745,538.792l-37.099,37.099c11.002,4.207,22.244,7.758,33.667,10.633l40.108-40.107
		C253.022,544.793,240.763,542.246,228.745,538.792z"/>
</g>
<g id="LWPOLYLINE_13_">
	<path fill="#008400" d="M293.44,548.495l-26.232,45.437c11.716,1.216,23.494,1.735,35.271,1.556l28.36-49.121
		C318.444,548.007,305.942,548.719,293.44,548.495z"/>
</g>
<g id="LWPOLYLINE_14_">
	<path fill="#008400" d="M358.442,541.121c12.135-3.019,24.025-6.941,35.574-11.735l-14.68,54.788
		c-11.33,3.222-22.842,5.768-34.474,7.625L358.442,541.121z"/>
</g>
<g id="LWPOLYLINE_15_">
	<path fill="#008400" d="M419.321,517.175v52.465c10.755-4.805,21.215-10.243,31.324-16.288v-56.721
		C440.731,504.251,430.26,511.119,419.321,517.175z"/>
</g>
<g id="LWPOLYLINE_16_">
	<path fill="#008400" d="M471.927,478.289l13.579,50.678c9.145-7.425,17.841-15.386,26.042-23.841l-14.681-54.788
		C489.263,460.264,480.926,469.607,471.927,478.289z"/>
</g>
<g id="LWPOLYLINE_17_">
	<path fill="#008400" d="M512.677,427.112l26.232,45.436c6.912-9.538,13.251-19.479,18.984-29.768l-28.36-49.122
		C524.757,405.214,519.123,416.397,512.677,427.112z"/>
</g>
<g id="LWPOLYLINE_18_">
	<path fill="#008400" d="M538.792,367.131l37.099,37.099c4.207-11.002,7.758-22.244,10.633-33.667l-40.107-40.107
		C544.793,342.854,542.246,355.114,538.792,367.131z"/>
</g>
<g id="LWPOLYLINE_19_">
	<path fill="#008400" d="M548.495,302.436l45.436,26.232c1.217-11.716,1.736-23.494,1.557-35.272l-49.121-28.36
		C548.007,277.432,548.719,289.934,548.495,302.436z"/>
</g>
<g id="LWPOLYLINE_20_">
	<path fill="#008400" d="M541.121,237.434l50.678,13.579c-1.857-11.632-4.403-23.143-7.625-34.473l-54.788-14.68
		C534.179,213.408,538.102,225.3,541.121,237.434z"/>
</g>
<g id="LWPOLYLINE_21_">
	<path fill="#008400" d="M517.175,176.555h52.465c-4.805-10.755-10.243-21.215-16.288-31.325h-56.721
		C504.251,155.145,511.119,165.616,517.175,176.555z"/>
</g>
<g id="LWPOLYLINE_22_">
	<path fill="#008400" d="M478.289,123.948l50.678-13.579c-7.425-9.145-15.386-17.841-23.841-26.042l-54.788,14.681
		C460.264,106.613,469.607,114.949,478.289,123.948z"/>
</g>
<g id="LWPOLYLINE_23_">
	<path fill="#008400" d="M442.78,37.982l-49.122,28.36c11.557,4.776,22.739,10.411,33.454,16.856l45.436-26.232
		C463.009,50.055,453.069,43.715,442.78,37.982z"/>
</g>
</svg>
