<?xml version="1.0" encoding="utf-8"?>
<!-- Generator: Adobe Illustrator 16.0.0, SVG Export Plug-In . SVG Version: 6.00 Build 0)  -->
<!DOCTYPE svg PUBLIC "-//W3C//DTD SVG 1.1//EN" "http://www.w3.org/Graphics/SVG/1.1/DTD/svg11.dtd">
<svg version="1.1" id="_x30_" xmlns="http://www.w3.org/2000/svg" xmlns:xlink="http://www.w3.org/1999/xlink" x="0px" y="0px"
	 width="601.098px" height="749.873px" viewBox="0 0 601.098 749.873" enable-background="new 0 0 601.098 749.873"
	 xml:space="preserve">
<g id="LINE">
	
		<line fill="none" stroke="#FF0000" stroke-linecap="round" stroke-linejoin="round" stroke-miterlimit="10" x1="449.323" y1="77.388" x2="486.517" y2="151.775"/>
</g>
<g id="LINE_1_">
	
		<line fill="none" stroke="#FF0000" stroke-linecap="round" stroke-linejoin="round" stroke-miterlimit="10" x1="523.711" y1="598.099" x2="449.323" y2="635.292"/>
</g>
<g id="LINE_2_">
	
		<line fill="none" stroke="#FF0000" stroke-linecap="round" stroke-linejoin="round" stroke-miterlimit="10" x1="449.323" y1="635.292" x2="412.13" y2="746.873"/>
</g>
<g id="LINE_3_">
	
		<line fill="none" stroke="#FF0000" stroke-linecap="round" stroke-linejoin="round" stroke-miterlimit="10" x1="412.13" y1="746.873" x2="300.549" y2="746.873"/>
</g>
<g id="LINE_4_">
	
		<line fill="none" stroke="#FF0000" stroke-linecap="round" stroke-linejoin="round" stroke-miterlimit="10" x1="523.711" y1="337.743" x2="598.098" y2="374.937"/>
</g>
<g id="LINE_5_">
	
		<line fill="none" stroke="#FF0000" stroke-linecap="round" stroke-linejoin="round" stroke-miterlimit="10" x1="598.098" y1="374.937" x2="598.098" y2="523.711"/>
</g>
<g id="LINE_6_">
	
		<line fill="none" stroke="#FF0000" stroke-linecap="round" stroke-linejoin="round" stroke-miterlimit="10" x1="598.098" y1="523.711" x2="523.711" y2="598.099"/>
</g>
<g id="LWPOLYLINE">
	
		<rect x="449.323" y="412.13" fill="none" stroke="#FF0000" stroke-linecap="round" stroke-linejoin="round" stroke-miterlimit="10" width="111.581" height="111.581"/>
</g>
<g id="LWPOLYLINE_1_">
	
		<rect x="300.549" y="598.099" fill="none" stroke="#FF0000" stroke-linecap="round" stroke-linejoin="round" stroke-miterlimit="10" width="111.581" height="148.774"/>
</g>
<g id="LINE_7_">
	
		<line fill="none" stroke="#FF0000" stroke-linecap="round" stroke-linejoin="round" stroke-miterlimit="10" x1="486.517" y1="151.775" x2="523.711" y2="300.549"/>
</g>
<g id="LINE_8_">
	
		<line fill="none" stroke="#FF0000" stroke-linecap="round" stroke-linejoin="round" stroke-miterlimit="10" x1="77.387" y1="598.099" x2="151.774" y2="635.292"/>
</g>
<g id="LINE_9_">
	
		<line fill="none" stroke="#FF0000" stroke-linecap="round" stroke-linejoin="round" stroke-miterlimit="10" x1="151.774" y1="635.292" x2="188.968" y2="746.873"/>
</g>
<g id="LINE_10_">
	
		<line fill="none" stroke="#FF0000" stroke-linecap="round" stroke-linejoin="round" stroke-miterlimit="10" x1="188.968" y1="746.873" x2="300.549" y2="746.873"/>
</g>
<g id="LINE_11_">
	
		<line fill="none" stroke="#FF0000" stroke-linecap="round" stroke-linejoin="round" stroke-miterlimit="10" x1="77.387" y1="337.743" x2="3" y2="374.937"/>
</g>
<g id="LINE_12_">
	
		<line fill="none" stroke="#FF0000" stroke-linecap="round" stroke-linejoin="round" stroke-miterlimit="10" x1="3" y1="374.937" x2="3" y2="523.711"/>
</g>
<g id="LINE_13_">
	
		<line fill="none" stroke="#FF0000" stroke-linecap="round" stroke-linejoin="round" stroke-miterlimit="10" x1="3" y1="523.711" x2="77.387" y2="598.099"/>
</g>
<g id="LWPOLYLINE_2_">
	
		<rect x="40.193" y="412.13" fill="none" stroke="#FF0000" stroke-linecap="round" stroke-linejoin="round" stroke-miterlimit="10" width="111.581" height="111.581"/>
</g>
<g id="LWPOLYLINE_3_">
	
		<rect x="188.968" y="598.099" fill="none" stroke="#FF0000" stroke-linecap="round" stroke-linejoin="round" stroke-miterlimit="10" width="111.581" height="148.774"/>
</g>
<g id="LINE_14_">
	
		<line fill="none" stroke="#FF0000" stroke-linecap="round" stroke-linejoin="round" stroke-miterlimit="10" x1="263.355" y1="3" x2="337.742" y2="3"/>
</g>
<g id="LINE_15_">
	
		<line fill="none" stroke="#FF0000" stroke-linecap="round" stroke-linejoin="round" stroke-miterlimit="10" x1="337.742" y1="3" x2="412.13" y2="40.194"/>
</g>
<g id="LINE_16_">
	
		<line fill="none" stroke="#FF0000" stroke-linecap="round" stroke-linejoin="round" stroke-miterlimit="10" x1="412.13" y1="40.194" x2="449.323" y2="77.388"/>
</g>
<g id="LWPOLYLINE_4_">
	
		<rect x="226.162" y="412.13" fill="none" stroke="#FF0000" stroke-linecap="round" stroke-linejoin="round" stroke-miterlimit="10" width="148.775" height="148.774"/>
</g>
<g id="LWPOLYLINE_5_">
	
		<rect x="226.162" y="263.355" fill="none" stroke="#FF0000" stroke-linecap="round" stroke-linejoin="round" stroke-miterlimit="10" width="148.775" height="148.774"/>
</g>
<g id="LINE_17_">
	
		<line fill="none" stroke="#FF0000" stroke-linecap="round" stroke-linejoin="round" stroke-miterlimit="10" x1="188.968" y1="598.099" x2="226.162" y2="560.904"/>
</g>
<g id="LINE_18_">
	
		<line fill="none" stroke="#FF0000" stroke-linecap="round" stroke-linejoin="round" stroke-miterlimit="10" x1="374.937" y1="560.904" x2="412.13" y2="598.099"/>
</g>
<g id="LINE_19_">
	
		<line fill="none" stroke="#FF0000" stroke-linecap="round" stroke-linejoin="round" stroke-miterlimit="10" x1="449.323" y1="635.292" x2="449.323" y2="77.388"/>
</g>
<g id="LINE_20_">
	
		<line fill="none" stroke="#FF0000" stroke-linecap="round" stroke-linejoin="round" stroke-miterlimit="10" x1="77.387" y1="337.743" x2="151.774" y2="337.743"/>
</g>
<g id="LINE_21_">
	
		<line fill="none" stroke="#FF0000" stroke-linecap="round" stroke-linejoin="round" stroke-miterlimit="10" x1="449.323" y1="337.743" x2="523.711" y2="337.743"/>
</g>
<g id="LINE_22_">
	
		<line fill="none" stroke="#FF0000" stroke-linecap="round" stroke-linejoin="round" stroke-miterlimit="10" x1="337.742" y1="40.194" x2="337.742" y2="226.162"/>
</g>
<g id="LINE_23_">
	
		<line fill="none" stroke="#FF0000" stroke-linecap="round" stroke-linejoin="round" stroke-miterlimit="10" x1="337.742" y1="226.162" x2="412.13" y2="226.162"/>
</g>
<g id="LINE_24_">
	
		<line fill="none" stroke="#FF0000" stroke-linecap="round" stroke-linejoin="round" stroke-miterlimit="10" x1="412.13" y1="226.162" x2="412.13" y2="114.581"/>
</g>
<g id="LINE_25_">
	
		<line fill="none" stroke="#FF0000" stroke-linecap="round" stroke-linejoin="round" stroke-miterlimit="10" x1="412.13" y1="114.581" x2="337.742" y2="40.194"/>
</g>
<g id="CIRCLE">
	<path fill="none" stroke="#FF0000" stroke-linecap="round" stroke-linejoin="round" stroke-miterlimit="10" d="M356.339,337.743
		c0-30.812-24.978-55.79-55.79-55.79c-30.812,0-55.791,24.978-55.791,55.79c0,30.813,24.979,55.791,55.791,55.791
		C331.361,393.533,356.339,368.555,356.339,337.743L356.339,337.743z"/>
</g>
<g id="CIRCLE_1_">
	<path fill="none" stroke="#FF0000" stroke-linecap="round" stroke-linejoin="round" stroke-miterlimit="10" d="M356.339,486.518
		c0-30.813-24.978-55.791-55.79-55.791c-30.812,0-55.791,24.979-55.791,55.791s24.979,55.79,55.791,55.79
		C331.361,542.308,356.339,517.33,356.339,486.518L356.339,486.518z"/>
</g>
<g id="CIRCLE_2_">
	<path fill="none" stroke="#FF0000" stroke-linecap="round" stroke-linejoin="round" stroke-miterlimit="10" d="M542.308,467.921
		c0-20.542-16.652-37.194-37.194-37.194c-20.541,0-37.193,16.652-37.193,37.194c0,20.541,16.652,37.193,37.193,37.193
		C525.655,505.114,542.308,488.462,542.308,467.921L542.308,467.921z"/>
</g>
<g id="CIRCLE_3_">
	<path fill="none" stroke="#FF0000" stroke-linecap="round" stroke-linejoin="round" stroke-miterlimit="10" d="M133.178,467.921
		c0-20.542-16.652-37.194-37.194-37.194S58.79,447.379,58.79,467.921c0,20.541,16.652,37.193,37.194,37.193
		S133.178,488.462,133.178,467.921L133.178,467.921z"/>
</g>
<g id="LINE_26_">
	
		<line fill="none" stroke="#FF0000" stroke-linecap="round" stroke-linejoin="round" stroke-miterlimit="10" x1="523.711" y1="337.743" x2="523.711" y2="300.549"/>
</g>
<g id="LINE_27_">
	
		<line fill="none" stroke="#FF0000" stroke-linecap="round" stroke-linejoin="round" stroke-miterlimit="10" x1="151.774" y1="77.388" x2="114.581" y2="151.775"/>
</g>
<g id="LINE_28_">
	
		<line fill="none" stroke="#FF0000" stroke-linecap="round" stroke-linejoin="round" stroke-miterlimit="10" x1="114.581" y1="151.775" x2="77.387" y2="300.549"/>
</g>
<g id="LINE_29_">
	
		<line fill="none" stroke="#FF0000" stroke-linecap="round" stroke-linejoin="round" stroke-miterlimit="10" x1="263.355" y1="3" x2="188.968" y2="40.194"/>
</g>
<g id="LINE_30_">
	
		<line fill="none" stroke="#FF0000" stroke-linecap="round" stroke-linejoin="round" stroke-miterlimit="10" x1="188.968" y1="40.194" x2="151.774" y2="77.388"/>
</g>
<g id="LINE_31_">
	
		<line fill="none" stroke="#FF0000" stroke-linecap="round" stroke-linejoin="round" stroke-miterlimit="10" x1="151.774" y1="635.292" x2="151.774" y2="77.388"/>
</g>
<g id="LINE_32_">
	
		<line fill="none" stroke="#FF0000" stroke-linecap="round" stroke-linejoin="round" stroke-miterlimit="10" x1="263.355" y1="40.194" x2="263.355" y2="226.162"/>
</g>
<g id="LINE_33_">
	
		<line fill="none" stroke="#FF0000" stroke-linecap="round" stroke-linejoin="round" stroke-miterlimit="10" x1="263.355" y1="226.162" x2="188.968" y2="226.162"/>
</g>
<g id="LINE_34_">
	
		<line fill="none" stroke="#FF0000" stroke-linecap="round" stroke-linejoin="round" stroke-miterlimit="10" x1="188.968" y1="226.162" x2="188.968" y2="114.581"/>
</g>
<g id="LINE_35_">
	
		<line fill="none" stroke="#FF0000" stroke-linecap="round" stroke-linejoin="round" stroke-miterlimit="10" x1="188.968" y1="114.581" x2="263.355" y2="40.194"/>
</g>
<g id="LINE_36_">
	
		<line fill="none" stroke="#FF0000" stroke-linecap="round" stroke-linejoin="round" stroke-miterlimit="10" x1="77.387" y1="337.743" x2="77.387" y2="300.549"/>
</g>
</svg>
