<?xml version="1.0" encoding="utf-8"?>
<!-- Generator: Adobe Illustrator 16.0.0, SVG Export Plug-In . SVG Version: 6.00 Build 0)  -->
<!DOCTYPE svg PUBLIC "-//W3C//DTD SVG 1.1//EN" "http://www.w3.org/Graphics/SVG/1.1/DTD/svg11.dtd">
<svg version="1.1" id="Vrstva_1" xmlns="http://www.w3.org/2000/svg" xmlns:xlink="http://www.w3.org/1999/xlink" x="0px" y="0px"
	 width="298.63px" height="284.47px" viewBox="0 0 298.63 284.47" enable-background="new 0 0 298.63 284.47" xml:space="preserve">
<g id="XMLID_1_">
	<g>
		<path fill="#D1D3D4" d="M298.13,142.23h-14.88c0-70.44-59.96-127.56-133.94-127.56V0.5C231.51,0.5,298.13,63.96,298.13,142.23z"/>
		<path fill="#6D6E71" d="M283.25,142.23h14.88c0,78.28-66.62,141.74-148.82,141.74v-14.18
			C223.291,269.79,283.25,212.68,283.25,142.23z"/>
		<path fill="#FFFFFF" d="M283.25,142.23H149.31V14.67C223.291,14.67,283.25,71.79,283.25,142.23z"/>
		<path fill="#FFFFFF" d="M149.31,142.23h133.94c0,70.45-59.96,127.56-133.94,127.56V142.23z"/>
		<path fill="#D1D3D4" d="M149.31,269.79v14.18C67.12,283.97,0.5,220.51,0.5,142.23h14.88C15.38,212.68,75.34,269.79,149.31,269.79z
			"/>
		<path fill="#FFFFFF" d="M149.31,142.23v127.56c-73.97,0-133.93-57.11-133.93-127.56H149.31z"/>
		<path fill="#FFFFFF" d="M149.31,14.67v127.56H15.38C15.38,71.79,75.34,14.67,149.31,14.67z"/>
		<path fill="#6D6E71" d="M149.31,0.5v14.17c-73.97,0-133.93,57.12-133.93,127.56H0.5C0.5,63.96,67.12,0.5,149.31,0.5z"/>
	</g>
	<g>
		<path fill="none" stroke="#000000" stroke-miterlimit="10" d="M298.13,142.23c0,78.28-66.62,141.74-148.82,141.74
			C67.12,283.97,0.5,220.51,0.5,142.23C0.5,63.96,67.12,0.5,149.31,0.5C231.51,0.5,298.13,63.96,298.13,142.23z"/>
		<path fill="none" stroke="#000000" stroke-miterlimit="10" d="M283.25,142.23c0,70.45-59.96,127.56-133.94,127.56
			c-73.97,0-133.93-57.11-133.93-127.56c0-70.44,59.96-127.56,133.93-127.56C223.291,14.67,283.25,71.79,283.25,142.23z"/>
		<polyline fill="none" stroke="#000000" stroke-miterlimit="10" points="0.5,142.23 15.38,142.23 149.31,142.23 283.25,142.23 
			298.13,142.23 		"/>
		<polyline fill="none" stroke="#000000" stroke-miterlimit="10" points="149.31,0.5 149.31,14.67 149.31,142.23 149.31,269.79 
			149.31,283.97 		"/>
	</g>
</g>
</svg>
