<?xml version="1.0" encoding="utf-8"?>
<!-- Generator: Adobe Illustrator 16.0.0, SVG Export Plug-In . SVG Version: 6.00 Build 0)  -->
<svg version="1.2" baseProfile="tiny" id="Vrstva_1"
	 xmlns="http://www.w3.org/2000/svg" xmlns:xlink="http://www.w3.org/1999/xlink" x="0px" y="0px" width="112.816px"
	 height="97.797px" viewBox="0 0 112.816 97.797" xml:space="preserve">
<g id="LWPOLYLINE_19_">
	<polygon fill="none" stroke="#010101" stroke-linecap="round" stroke-linejoin="round" stroke-miterlimit="10" points="
		28.381,0.354 0.354,48.898 28.381,97.443 84.436,97.443 112.462,48.898 84.436,0.354 	"/>
</g>
<g id="LWPOLYLINE_20_">
	<path fill="none" stroke="#010101" stroke-width="2" stroke-linecap="round" stroke-linejoin="round" stroke-miterlimit="10" d="
		M74.064,49.372c5.265,0.131,9.427,4.505,9.296,9.77c-0.704,4.679-2.627,9.089-5.575,12.788l-7.123-4.56
		C72.539,61.535,73.682,55.489,74.064,49.372z"/>
</g>
<g id="LINE_2_">
	
		<line fill="none" stroke="#010101" stroke-width="2" stroke-linecap="round" stroke-linejoin="round" stroke-miterlimit="10" x1="41.267" y1="67.541" x2="67.297" y2="67.541"/>
</g>
<g id="ARC_1_">
	<path fill="none" stroke="#010101" stroke-width="2" stroke-linecap="round" stroke-linejoin="round" stroke-miterlimit="10" d="
		M67.297,67.541c3.538-10.56,4.436-21.826,2.614-32.813"/>
</g>
<g id="ARC_2_">
	<path fill="none" stroke="#010101" stroke-width="2" stroke-linecap="round" stroke-linejoin="round" stroke-miterlimit="10" d="
		M69.911,34.728c-2.026-8.315-7.802-15.217-15.63-18.676"/>
</g>
<g id="LWPOLYLINE_21_">
	
		<polygon fill="none" stroke="#010101" stroke-width="2" stroke-linecap="round" stroke-linejoin="round" stroke-miterlimit="10" points="
		62.689,70.344 45.873,70.344 43.07,75.199 65.492,75.199 	"/>
</g>
<g id="ARC_3_">
	<path fill="none" stroke="#010101" stroke-width="2" stroke-linecap="round" stroke-linejoin="round" stroke-miterlimit="10" d="
		M38.651,34.728c-1.821,10.987-0.924,22.254,2.615,32.813"/>
</g>
<g id="ARC_4_">
	<path fill="none" stroke="#010101" stroke-width="2" stroke-linecap="round" stroke-linejoin="round" stroke-miterlimit="10" d="
		M54.281,16.052c-7.828,3.459-13.604,10.361-15.63,18.676"/>
</g>
<g id="LWPOLYLINE_22_">
	<path fill="none" stroke="#010101" stroke-width="2" stroke-linecap="round" stroke-linejoin="round" stroke-miterlimit="10" d="
		M34.498,49.372c-5.265,0.131-9.427,4.505-9.296,9.77c0.704,4.679,2.627,9.089,5.575,12.788l7.123-4.56
		C36.024,61.535,34.881,55.489,34.498,49.372z"/>
</g>
<g id="CIRCLE_5_">
	<path fill="none" stroke="#010101" stroke-width="2" stroke-linecap="round" stroke-linejoin="round" stroke-miterlimit="10" d="
		M59.09,32.184c0-2.656-2.152-4.809-4.809-4.809c-2.655,0-4.809,2.153-4.809,4.809s2.153,4.809,4.809,4.809
		C56.938,36.992,59.09,34.839,59.09,32.184L59.09,32.184z"/>
</g>
<g id="CIRCLE_6_">
	<path fill="none" stroke="#010101" stroke-width="2" stroke-linecap="round" stroke-linejoin="round" stroke-miterlimit="10" d="
		M59.09,49.177c0-2.655-2.152-4.809-4.809-4.809c-2.655,0-4.809,2.153-4.809,4.809s2.153,4.809,4.809,4.809
		C56.938,53.985,59.09,51.832,59.09,49.177L59.09,49.177z"/>
</g>
</svg>
