<?xml version="1.0" encoding="utf-8"?>
<!-- Generator: Adobe Illustrator 16.0.0, SVG Export Plug-In . SVG Version: 6.00 Build 0)  -->
<svg version="1.2" baseProfile="tiny" id="Vrstva_1"
	 xmlns="http://www.w3.org/2000/svg" xmlns:xlink="http://www.w3.org/1999/xlink" x="0px" y="0px" width="112.816px"
	 height="97.797px" viewBox="0 0 112.816 97.797" xml:space="preserve">
<g id="LWPOLYLINE_9_">
	<polygon fill="none" stroke="#010101" stroke-linecap="round" stroke-linejoin="round" stroke-miterlimit="10" points="
		28.381,0.354 0.354,48.898 28.381,97.442 84.436,97.442 112.463,48.898 84.436,0.354 	"/>
</g>
<g id="CIRCLE">
	<path fill="none" stroke="#010101" stroke-width="2" stroke-linecap="round" stroke-linejoin="round" stroke-miterlimit="10" d="
		M61.544,28.365c0-10.602-8.595-19.196-19.196-19.196c-10.601,0-19.195,8.594-19.195,19.196s8.594,19.196,19.195,19.196
		C52.949,47.561,61.544,38.966,61.544,28.365L61.544,28.365z"/>
</g>
<g id="CIRCLE_1_">
	<path fill="none" stroke="#010101" stroke-width="2" stroke-linecap="round" stroke-linejoin="round" stroke-miterlimit="10" d="
		M45.912,76.106c0-5.636-4.569-10.204-10.205-10.204s-10.204,4.568-10.204,10.204s4.568,10.205,10.204,10.205
		S45.912,81.742,45.912,76.106L45.912,76.106z"/>
</g>
<g id="CIRCLE_2_">
	<path fill="none" stroke="#010101" stroke-width="2" stroke-linecap="round" stroke-linejoin="round" stroke-miterlimit="10" d="
		M53.687,62.64c0-5.635-4.569-10.204-10.204-10.204c-5.636,0-10.205,4.569-10.205,10.204c0,5.637,4.568,10.205,10.205,10.205
		C49.117,72.845,53.687,68.276,53.687,62.64L53.687,62.64z"/>
</g>
<g id="CIRCLE_3_">
	<path fill="none" stroke="#010101" stroke-width="2" stroke-linecap="round" stroke-linejoin="round" stroke-miterlimit="10" d="
		M59.391,76.106c0-5.636-4.569-10.204-10.205-10.204s-10.205,4.568-10.205,10.204s4.569,10.205,10.205,10.205
		S59.391,81.742,59.391,76.106L59.391,76.106z"/>
</g>
<g id="CIRCLE_4_">
	<path fill="none" stroke="#010101" stroke-width="2" stroke-linecap="round" stroke-linejoin="round" stroke-miterlimit="10" d="
		M89.358,61.301c0-6.687-5.42-12.106-12.106-12.106s-12.106,5.42-12.106,12.106s5.42,12.106,12.106,12.106
		S89.358,67.987,89.358,61.301L89.358,61.301z"/>
</g>
</svg>
