<?xml version="1.0" encoding="utf-8"?>
<!-- Generator: Adobe Illustrator 16.0.0, SVG Export Plug-In . SVG Version: 6.00 Build 0)  -->
<svg version="1.2" baseProfile="tiny" id="Vrstva_1"
	 xmlns="http://www.w3.org/2000/svg" xmlns:xlink="http://www.w3.org/1999/xlink" x="0px" y="0px" width="112.816px"
	 height="97.797px" viewBox="0 0 112.816 97.797" xml:space="preserve">
<g id="LWPOLYLINE">
	
		<polygon fill="none" stroke="#010101" stroke-width="2" stroke-linecap="round" stroke-linejoin="round" stroke-miterlimit="10" points="
		36.229,13.947 16.049,48.898 36.229,83.85 76.588,83.85 96.767,48.898 76.588,13.947 	"/>
</g>
<g id="LWPOLYLINE_1_">
	
		<polygon fill="none" stroke="#010101" stroke-width="2" stroke-linecap="round" stroke-linejoin="round" stroke-miterlimit="10" points="
		33.987,10.063 11.565,48.898 33.987,87.734 78.829,87.734 101.251,48.898 78.829,10.063 	"/>
</g>
<g id="LWPOLYLINE_2_">
	<polygon fill="none" stroke="#010101" stroke-linecap="round" stroke-linejoin="round" stroke-miterlimit="10" points="
		28.381,0.354 0.354,48.898 28.381,97.443 84.435,97.443 112.462,48.898 84.435,0.354 	"/>
</g>
<g id="LWPOLYLINE_4_">
	
		<polygon fill="none" stroke="#010101" stroke-width="2" stroke-linecap="round" stroke-linejoin="round" stroke-miterlimit="10" points="
		42.283,24.432 28.157,48.898 42.283,73.365 70.534,73.365 84.659,48.898 70.534,24.432 	"/>
</g>
<g id="LWPOLYLINE_5_">
	
		<polygon fill="none" stroke="#010101" stroke-width="2" stroke-linecap="round" stroke-linejoin="round" stroke-miterlimit="10" points="
		40.713,21.714 25.018,48.898 40.713,76.083 72.104,76.083 87.798,48.898 72.104,21.714 	"/>
</g>
<g id="LWPOLYLINE_6_">
	
		<polygon fill="none" stroke="#010101" stroke-width="2" stroke-linecap="round" stroke-linejoin="round" stroke-miterlimit="10" points="
		56.408,38.1 47.056,43.499 47.056,54.298 56.408,59.697 65.761,54.298 65.761,43.499 	"/>
</g>
<g id="LWPOLYLINE_7_">
	
		<polygon fill="none" stroke="#010101" stroke-width="2" stroke-linecap="round" stroke-linejoin="round" stroke-miterlimit="10" points="
		56.408,33.262 42.867,41.081 42.867,56.716 56.408,64.535 69.95,56.716 69.95,41.081 	"/>
</g>
</svg>
