<?xml version="1.0" encoding="utf-8"?>
<!-- Generator: Adobe Illustrator 16.0.0, SVG Export Plug-In . SVG Version: 6.00 Build 0)  -->
<svg version="1.2" baseProfile="tiny" id="Vrstva_1"
	 xmlns="http://www.w3.org/2000/svg" xmlns:xlink="http://www.w3.org/1999/xlink" x="0px" y="0px" width="29.347px"
	 height="29.347px" viewBox="0 0 29.347 29.347" xml:space="preserve">
<g>
	<path fill="#C7D22D" d="M28.847,23.177c0,3.118-2.551,5.669-5.669,5.669H6.169c-3.118,0-5.669-2.551-5.669-5.669V6.169
		C0.5,3.051,3.051,0.5,6.169,0.5h17.008c3.118,0,5.669,2.551,5.669,5.669V23.177z"/>
	<path fill="none" stroke="#000000" stroke-width="3" stroke-miterlimit="10" d="M28.847,23.177c0,3.118-2.551,5.669-5.669,5.669
		H6.169c-3.118,0-5.669-2.551-5.669-5.669V6.169C0.5,3.051,3.051,0.5,6.169,0.5h17.008c3.118,0,5.669,2.551,5.669,5.669V23.177z"/>
</g>
<g>
	<path stroke="#000000" stroke-width="2" stroke-miterlimit="10" d="M8.409,18.586c0.702,0.432,1.729,0.792,2.809,0.792
		c1.603,0,2.539-0.846,2.539-2.071c0-1.134-0.648-1.782-2.287-2.413c-1.981-0.702-3.205-1.729-3.205-3.439
		c0-1.891,1.566-3.295,3.925-3.295c1.242,0,2.143,0.288,2.683,0.594l-0.432,1.279c-0.396-0.216-1.207-0.576-2.305-0.576
		c-1.656,0-2.287,0.99-2.287,1.818c0,1.134,0.738,1.692,2.413,2.341c2.053,0.792,3.097,1.782,3.097,3.565
		c0,1.873-1.387,3.493-4.25,3.493c-1.17,0-2.449-0.342-3.097-0.774L8.409,18.586z"/>
	<path stroke="#000000" stroke-miterlimit="10" d="M19.21,9.331c0.018,0.541-0.378,0.973-1.008,0.973
		c-0.558,0-0.955-0.432-0.955-0.973c0-0.558,0.414-0.99,0.99-0.99C18.832,8.341,19.21,8.773,19.21,9.331z M17.445,20.495V11.78
		h1.584v8.714H17.445z"/>
</g>
</svg>
