<?xml version="1.0" encoding="utf-8"?>
<!-- Generator: Adobe Illustrator 16.0.0, SVG Export Plug-In . SVG Version: 6.00 Build 0)  -->
<svg version="1.2" baseProfile="tiny" id="Vrstva_1"
	 xmlns="http://www.w3.org/2000/svg" xmlns:xlink="http://www.w3.org/1999/xlink" x="0px" y="0px" width="29.347px"
	 height="29.347px" viewBox="0 0 29.347 29.347" xml:space="preserve">
<g>
	<path fill="#972A90" d="M28.847,23.177c0,3.118-2.551,5.669-5.669,5.669H6.169c-3.118,0-5.669-2.551-5.669-5.669V6.169
		C0.5,3.051,3.051,0.5,6.169,0.5h17.008c3.118,0,5.669,2.551,5.669,5.669V23.177z"/>
	<path fill="none" stroke="#000000" stroke-width="3" stroke-miterlimit="10" d="M28.847,23.177c0,3.118-2.551,5.669-5.669,5.669
		H6.169c-3.118,0-5.669-2.551-5.669-5.669V6.169C0.5,3.051,3.051,0.5,6.169,0.5h17.008c3.118,0,5.669,2.551,5.669,5.669V23.177z"/>
</g>
<g>
	<path stroke="#000000" stroke-width="2" stroke-miterlimit="10" d="M12.108,8.359v7.184c0,2.719,1.206,3.871,2.827,3.871
		c1.801,0,2.953-1.188,2.953-3.871V8.359h1.584v7.076c0,3.727-1.962,5.258-4.591,5.258c-2.484,0-4.357-1.422-4.357-5.186V8.359
		H12.108z"/>
</g>
</svg>
